<svg xmlns="http://www.w3.org/2000/svg" xmlns:v="https://svgstorm.com"
viewBox = "0 0 250 217"
width="250"
height="217">
<g fill="None" fill-opacity="0.0" stroke="#000000" stroke-opacity="0.00" stroke-width="0.3"><path d="
M 0.00 88.00 
C 1.55 86.88 1.94 84.60 3.00 83.00
C 12.20 69.17 28.10 57.67 39.75 45.75 C 51.40 33.83 63.50 18.59 77.00 9.00
C 78.45 7.97 79.48 7.66 81.00 7.00
C 88.18 3.89 101.84 5.82 105.00 15.00
C 105.31 15.24 106.70 15.24 107.00 15.00
C 113.96 9.39 122.76 5.20 130.00 0.00
L 0.00 0.00
L 0.00 88.00 Z"/>
</g>
<g fill="None" fill-opacity="0.0" stroke="#B81E50" stroke-opacity="0.68" stroke-width="0.3"><path d="
M 107.00 15.00 
C 107.37 18.19 111.12 23.10 115.00 25.00
C 115.40 25.20 116.00 25.00 116.00 25.00
C 128.68 24.74 142.28 17.09 155.00 15.00
C 155.49 14.92 156.00 15.00 156.00 15.00
C 155.83 14.57 156.00 14.00 156.00 14.00
C 152.19 9.25 149.11 2.46 143.00 0.00
L 130.00 0.00
C 122.76 5.20 113.96 9.39 107.00 15.00 Z"/>
</g>
<g fill="None" fill-opacity="0.0" stroke="#000000" stroke-opacity="0.00" stroke-width="0.3"><path d="
M 156.00 14.00 
C 156.25 13.75 157.00 14.00 157.00 14.00
C 167.52 10.64 175.56 8.08 187.00 7.00 C 198.44 5.92 203.17 17.14 206.00 26.00
C 214.87 25.20 225.57 25.28 234.00 27.00
C 241.26 28.48 246.99 32.01 250.00 39.00
L 250.00 0.00
L 143.00 0.00
C 149.11 2.46 152.19 9.25 156.00 14.00 Z"/>
</g>
<g fill="None" fill-opacity="0.0" stroke="#C77621" stroke-opacity="0.47" stroke-width="0.3"><path d="
M 81.00 7.00 
C 81.24 7.07 81.65 7.95 82.00 8.00
C 91.81 9.41 97.68 7.97 104.00 17.00
C 104.44 16.84 105.00 17.00 105.00 17.00
C 105.23 16.84 105.15 15.45 105.00 15.00
C 101.84 5.82 88.18 3.89 81.00 7.00 Z"/>
</g>
<g fill="None" fill-opacity="0.0" stroke="#C17116" stroke-opacity="0.60" stroke-width="0.3"><path d="
M 77.00 9.00 
C 64.07 19.87 52.10 34.08 40.25 46.25 C 28.39 58.42 13.33 69.79 3.00 83.00
C 1.94 84.60 1.55 86.88 0.00 88.00
L 0.00 100.00
C 0.34 100.17 0.87 100.65 1.00 101.00
C 1.29 101.06 1.95 100.35 2.00 100.00
C 3.07 92.60 2.69 83.96 9.25 79.25 C 15.80 74.54 18.28 69.56 23.75 64.75 C 29.22 59.95 33.44 55.13 38.25 50.25 C 43.05 45.37 48.15 41.30 52.25 36.25 C 56.35 31.19 63.70 27.15 66.75 21.75 C 69.81 16.35 80.59 12.75 82.00 8.00
C 81.65 7.95 81.24 7.07 81.00 7.00
C 79.48 7.66 78.45 7.97 77.00 9.00 Z"/>
</g>
<g fill="None" fill-opacity="0.0" stroke="#1E3060" stroke-opacity="0.51" stroke-width="0.3"><path d="
M 157.00 14.00 
C 157.47 14.23 157.76 15.62 158.00 16.00
C 162.77 17.58 170.83 11.37 176.02 11.02 C 181.22 10.68 189.88 6.47 194.74 11.26 C 199.60 16.05 203.25 20.06 203.00 27.00
C 203.58 26.60 205.53 27.50 206.00 27.00
C 206.00 26.50 206.00 26.00 206.00 26.00
C 203.17 17.14 198.44 5.92 187.00 7.00 C 175.56 8.08 167.52 10.64 157.00 14.00 Z"/>
</g>
<g fill="None" fill-opacity="0.0" stroke="#F8E214" stroke-opacity="0.60" stroke-width="0.3"><path d="
M 2.00 100.00 
C 2.79 99.86 3.66 102.46 4.00 103.00
C 13.41 115.08 29.19 123.58 38.00 136.00
C 40.48 118.82 38.00 99.39 38.00 82.00
C 38.00 81.50 38.00 80.50 38.00 80.00
C 27.13 62.24 46.05 50.10 61.23 43.23 C 76.41 36.36 88.40 22.63 104.00 17.00
C 97.68 7.97 91.81 9.41 82.00 8.00
C 80.59 12.75 69.81 16.35 66.75 21.75 C 63.70 27.15 56.35 31.19 52.25 36.25 C 48.15 41.30 43.05 45.37 38.25 50.25 C 33.44 55.13 29.22 59.95 23.75 64.75 C 18.28 69.56 15.80 74.54 9.25 79.25 C 2.69 83.96 3.07 92.60 2.00 100.00 Z"/>
</g>
<g fill="None" fill-opacity="0.0" stroke="#C06B3A" stroke-opacity="0.07" stroke-width="0.3"><path d="
M 3.00 83.00 
C 13.33 69.79 28.39 58.42 40.25 46.25 C 52.10 34.08 64.07 19.87 77.00 9.00
C 63.50 18.59 51.40 33.83 39.75 45.75 C 28.10 57.67 12.20 69.17 3.00 83.00 Z"/>
</g>
<g fill="None" fill-opacity="0.0" stroke="#40539C" stroke-opacity="0.60" stroke-width="0.3"><path d="
M 158.00 16.00 
C 160.35 19.78 162.46 22.88 164.00 27.00
C 164.50 27.00 165.00 27.00 165.00 27.00
C 177.67 27.00 190.33 27.00 203.00 27.00
C 203.25 20.06 199.60 16.05 194.74 11.26 C 189.88 6.47 181.22 10.68 176.02 11.02 C 170.83 11.37 162.77 17.58 158.00 16.00 Z"/>
</g>
<g fill="None" fill-opacity="0.0" stroke="#5C4082" stroke-opacity="0.62" stroke-width="0.3"><path d="
M 156.00 15.00 
C 157.65 19.21 160.46 23.30 163.00 27.00
C 163.22 27.25 164.00 27.00 164.00 27.00
C 162.46 22.88 160.35 19.78 158.00 16.00
C 157.76 15.62 157.47 14.23 157.00 14.00
C 157.00 14.00 156.25 13.75 156.00 14.00
C 156.00 14.00 155.83 14.57 156.00 15.00 Z"/>
</g>
<g fill="None" fill-opacity="0.0" stroke="#B25143" stroke-opacity="0.98" stroke-width="0.3"><path d="
M 105.00 17.00 
C 115.46 21.37 121.38 35.69 130.75 42.25 C 140.13 48.81 147.07 60.70 156.25 67.75 C 165.43 74.80 172.32 86.67 181.75 93.25 C 191.19 99.83 197.50 114.62 208.00 119.00
C 207.80 118.60 208.00 118.00 208.00 118.00
C 190.33 105.65 177.51 86.02 161.25 71.75 C 144.99 57.49 130.22 40.22 115.00 25.00
C 111.12 23.10 107.37 18.19 107.00 15.00
C 106.70 15.24 105.31 15.24 105.00 15.00
C 105.15 15.45 105.23 16.84 105.00 17.00 Z"/>
</g>
<g fill="None" fill-opacity="0.0" stroke="#A7275B" stroke-opacity="0.88" stroke-width="0.3"><path d="
M 116.00 25.00 
C 117.69 27.42 120.02 29.02 122.00 31.00
C 131.65 26.54 148.57 24.13 160.00 27.00
C 158.13 24.84 154.46 18.04 155.00 15.00
C 142.28 17.09 128.68 24.74 116.00 25.00 Z"/>
</g>
<g fill="None" fill-opacity="0.0" stroke="#89336A" stroke-opacity="0.99" stroke-width="0.3"><path d="
M 160.00 27.00 
C 167.07 35.19 174.79 47.12 179.32 57.68 C 183.85 68.24 195.23 77.77 196.00 89.00
C 205.46 95.20 210.87 109.65 216.33 118.67 C 221.78 127.70 235.95 142.46 228.22 153.22 C 220.49 163.98 206.71 165.11 197.97 172.97 C 189.23 180.84 176.47 184.32 168.00 193.00
C 179.54 186.01 193.54 177.87 205.08 171.08 C 216.61 164.28 236.08 154.21 230.07 138.93 C 224.06 123.65 216.41 113.92 208.23 100.77 C 200.05 87.62 193.77 76.89 185.70 64.30 C 177.62 51.72 171.19 38.94 163.00 27.00
C 160.46 23.30 157.65 19.21 156.00 15.00
C 156.00 15.00 155.49 14.92 155.00 15.00
C 154.46 18.04 158.13 24.84 160.00 27.00 Z"/>
</g>
<g fill="None" fill-opacity="0.0" stroke="#E5A628" stroke-opacity="0.88" stroke-width="0.3"><path d="
M 38.00 80.00 
C 38.01 78.22 38.21 78.21 39.00 77.00
C 47.35 64.15 57.20 86.49 52.00 94.00
C 43.34 95.76 48.30 84.00 47.00 79.00
C 46.00 79.00 45.00 79.00 44.00 79.00
C 43.73 82.98 44.36 87.03 44.00 91.00
C 47.18 96.96 50.97 104.24 56.00 108.00
C 57.26 104.53 60.95 104.86 64.00 105.00
C 66.41 97.78 60.63 97.05 60.00 92.00
C 71.09 89.41 69.12 100.34 69.00 108.00 C 68.88 115.66 69.09 125.17 69.00 133.00
C 69.51 134.80 72.96 137.01 74.00 138.00
C 74.00 131.29 73.14 122.50 74.00 116.00 C 74.86 109.50 71.38 99.02 75.00 94.00
C 76.97 91.26 79.77 92.01 83.00 92.00
C 82.06 84.93 78.13 77.11 77.01 69.99 C 75.89 62.87 71.08 52.56 73.33 45.33 C 75.58 38.10 81.88 32.39 89.07 32.07 C 96.27 31.75 105.26 24.96 112.00 26.00
C 109.87 23.87 106.30 20.67 105.00 18.00
C 104.80 17.60 105.00 17.00 105.00 17.00
C 105.00 17.00 104.44 16.84 104.00 17.00
C 88.40 22.63 76.41 36.36 61.23 43.23 C 46.05 50.10 27.13 62.24 38.00 80.00 Z"/>
</g>
<g fill="None" fill-opacity="0.0" stroke="#BF673F" stroke-opacity="0.99" stroke-width="0.3"><path d="
M 105.00 18.00 
C 125.04 32.01 139.12 54.26 157.75 70.25 C 176.38 86.24 193.24 106.87 210.00 124.00
C 209.75 122.17 208.83 120.66 208.00 119.00
C 197.50 114.62 191.19 99.83 181.75 93.25 C 172.32 86.67 165.43 74.80 156.25 67.75 C 147.07 60.70 140.13 48.81 130.75 42.25 C 121.38 35.69 115.46 21.37 105.00 17.00
C 105.00 17.00 104.80 17.60 105.00 18.00 Z"/>
</g>
<g fill="None" fill-opacity="0.0" stroke="#D58743" stroke-opacity="0.99" stroke-width="0.3"><path d="
M 112.00 26.00 
C 120.55 34.55 129.31 43.02 137.75 51.25 C 146.19 59.48 155.01 68.41 163.25 76.75 C 171.48 85.09 180.90 93.91 188.75 102.25 C 196.60 110.59 211.77 122.29 207.22 134.22 C 202.67 146.15 191.40 152.00 183.25 161.25 C 175.10 170.50 166.41 178.17 157.75 186.75 C 149.10 195.33 139.69 205.68 132.00 213.00
C 137.47 210.41 141.19 203.85 145.75 199.75 C 150.32 195.65 155.71 190.33 160.00 186.00
C 160.74 185.04 161.08 184.70 162.00 184.00
C 163.92 182.10 166.14 179.87 168.00 178.00
C 168.74 177.04 169.08 176.70 170.00 176.00
C 171.92 174.10 174.14 171.87 176.00 170.00
C 176.74 169.04 177.08 168.70 178.00 168.00
C 179.92 166.10 182.14 163.87 184.00 162.00
C 184.74 161.04 185.08 160.70 186.00 160.00
C 187.92 158.10 190.14 155.87 192.00 154.00
C 192.74 153.04 193.08 152.70 194.00 152.00
C 195.92 150.10 198.14 147.87 200.00 146.00
C 200.74 145.04 201.08 144.70 202.00 144.00
C 203.27 142.74 206.10 140.34 207.00 139.00
C 209.21 135.12 210.44 129.66 210.00 125.00
C 209.95 124.50 210.00 124.00 210.00 124.00
C 193.24 106.87 176.38 86.24 157.75 70.25 C 139.12 54.26 125.04 32.01 105.00 18.00
C 106.30 20.67 109.87 23.87 112.00 26.00 Z"/>
</g>
<g fill="None" fill-opacity="0.0" stroke="#A8414C" stroke-opacity="0.99" stroke-width="0.3"><path d="
M 208.00 118.00 
C 202.34 106.43 187.89 99.48 179.75 89.25 C 171.62 79.02 159.90 69.91 150.75 60.25 C 141.60 50.58 131.37 40.37 122.00 31.00
C 120.02 29.02 117.69 27.42 116.00 25.00
C 116.00 25.00 115.40 25.20 115.00 25.00
C 130.22 40.22 144.99 57.49 161.25 71.75 C 177.51 86.02 190.33 105.65 208.00 118.00 Z"/>
</g>
<g fill="None" fill-opacity="0.0" stroke="#D89C31" stroke-opacity="0.99" stroke-width="0.3"><path d="
M 83.00 92.00 
C 83.12 92.94 82.75 94.09 83.00 95.00
C 83.53 96.95 85.97 99.29 85.00 102.00
C 86.28 96.78 85.18 88.20 94.00 90.00
C 92.40 84.43 94.85 72.93 100.00 78.00
C 99.77 78.35 100.00 79.00 100.00 79.00
C 100.00 89.55 99.75 100.48 100.00 111.00 C 100.25 121.52 100.64 131.43 97.00 140.00
C 93.77 147.61 101.90 160.83 103.78 169.22 C 105.65 177.61 108.19 191.45 110.00 199.00
C 113.56 205.18 119.77 214.62 128.00 214.00
C 128.50 213.96 129.00 214.00 129.00 214.00
C 129.89 213.67 131.20 213.38 132.00 213.00
C 139.69 205.68 149.10 195.33 157.75 186.75 C 166.41 178.17 175.10 170.50 183.25 161.25 C 191.40 152.00 202.67 146.15 207.22 134.22 C 211.77 122.29 196.60 110.59 188.75 102.25 C 180.90 93.91 171.48 85.09 163.25 76.75 C 155.01 68.41 146.19 59.48 137.75 51.25 C 129.31 43.02 120.55 34.55 112.00 26.00
C 105.26 24.96 96.27 31.75 89.07 32.07 C 81.88 32.39 75.58 38.10 73.33 45.33 C 71.08 52.56 75.89 62.87 77.01 69.99 C 78.13 77.11 82.06 84.93 83.00 92.00
M 106.00 140.00 
C 102.31 137.42 105.50 124.02 105.00 119.00 C 104.50 113.98 104.31 101.05 105.00 96.00 C 105.69 90.95 102.19 76.67 106.00 74.00
C 109.85 71.31 119.21 74.05 118.00 80.00 C 116.79 85.96 118.64 92.71 118.00 99.00 C 117.36 105.29 116.75 107.94 118.00 114.00 C 119.25 120.06 116.03 126.86 118.00 133.00 C 119.97 139.14 110.97 143.48 106.00 140.00
M 128.00 83.00 
C 130.28 84.14 127.90 88.31 125.32 86.66 C 122.74 85.01 125.60 81.80 128.00 83.00
M 128.00 140.00 
C 127.00 140.58 125.08 139.56 124.00 140.00
C 124.00 124.00 124.00 108.00 124.00 92.00
C 125.33 92.00 126.67 92.00 128.00 92.00
C 130.90 93.67 128.71 103.33 129.00 107.00 C 129.29 110.67 129.48 120.29 129.00 124.00 C 128.52 127.71 131.05 138.24 128.00 140.00
M 146.00 92.00 
C 144.62 106.90 141.43 121.34 139.00 136.00
C 142.23 135.94 147.43 134.95 146.00 140.00
C 142.00 140.00 138.00 140.00 134.00 140.00
C 135.76 125.20 139.33 110.84 141.00 96.00
C 137.77 96.06 132.57 97.05 134.00 92.00
C 138.00 92.00 142.00 92.00 146.00 92.00 Z"/>
</g>
<g fill="None" fill-opacity="0.0" stroke="#585959" stroke-opacity="0.49" stroke-width="0.3"><path d="
M 206.00 27.00 
C 206.00 27.50 206.00 28.00 206.00 28.00
C 215.22 28.83 225.61 27.05 234.00 27.00
C 225.57 25.28 214.87 25.20 206.00 26.00
C 206.00 26.00 206.00 26.50 206.00 27.00 Z"/>
</g>
<g fill="None" fill-opacity="0.0" stroke="#A03063" stroke-opacity="1.00" stroke-width="0.3"><path d="
M 122.00 31.00 
C 131.37 40.37 141.60 50.58 150.75 60.25 C 159.90 69.91 171.62 79.02 179.75 89.25 C 187.89 99.48 202.34 106.43 208.00 118.00
C 208.00 118.00 207.80 118.60 208.00 119.00
C 208.83 120.66 209.75 122.17 210.00 124.00
C 210.00 124.00 209.95 124.50 210.00 125.00
C 216.64 133.97 202.80 144.46 197.25 150.25 C 191.69 156.03 182.86 163.65 177.10 170.10 C 171.34 176.55 162.62 183.28 157.25 190.25 C 151.88 197.21 144.39 204.28 139.00 212.00
C 139.83 211.77 141.14 212.00 142.00 212.00
C 142.56 211.81 143.71 209.51 144.00 209.00
C 147.47 202.90 160.41 197.60 168.00 193.00
C 176.47 184.32 189.23 180.84 197.97 172.97 C 206.71 165.11 220.49 163.98 228.22 153.22 C 235.95 142.46 221.78 127.70 216.33 118.67 C 210.87 109.65 205.46 95.20 196.00 89.00
C 195.23 77.77 183.85 68.24 179.32 57.68 C 174.79 47.12 167.07 35.19 160.00 27.00
C 148.57 24.13 131.65 26.54 122.00 31.00 Z"/>
</g>
<g fill="None" fill-opacity="0.0" stroke="#6A4B77" stroke-opacity="1.00" stroke-width="0.3"><path d="
M 168.00 193.00 
C 160.41 197.60 147.47 202.90 144.00 209.00
C 144.73 208.47 147.85 207.56 149.00 207.00
C 151.57 205.74 154.99 203.86 158.00 203.00
C 170.48 195.28 181.13 187.88 194.23 179.23 C 207.33 170.58 219.49 168.16 230.25 155.25 C 241.00 142.33 220.19 124.18 220.00 112.00
C 210.94 106.34 207.47 94.46 200.74 85.26 C 194.01 76.05 189.94 65.22 182.70 56.30 C 175.45 47.39 171.18 36.49 165.00 27.00
C 165.00 27.00 164.50 27.00 164.00 27.00
C 164.00 27.00 163.22 27.25 163.00 27.00
C 171.19 38.94 177.62 51.72 185.70 64.30 C 193.77 76.89 200.05 87.62 208.23 100.77 C 216.41 113.92 224.06 123.65 230.07 138.93 C 236.08 154.21 216.61 164.28 205.08 171.08 C 193.54 177.87 179.54 186.01 168.00 193.00 Z"/>
</g>
<g fill="None" fill-opacity="0.0" stroke="#515E8B" stroke-opacity="1.00" stroke-width="0.3"><path d="
M 158.00 203.00 
C 166.61 200.53 175.24 198.40 184.02 196.02 C 192.81 193.65 202.59 191.50 211.22 189.22 C 219.85 186.95 228.87 185.58 236.08 180.08 C 243.30 174.59 241.88 162.45 238.07 154.93 C 234.27 147.40 234.08 135.96 231.00 128.00 C 227.92 120.04 227.24 108.24 221.00 104.00
C 224.14 92.30 217.04 78.56 214.22 65.78 C 211.40 53.00 206.43 39.64 203.00 27.00
C 190.33 27.00 177.67 27.00 165.00 27.00
C 171.18 36.49 175.45 47.39 182.70 56.30 C 189.94 65.22 194.01 76.05 200.74 85.26 C 207.47 94.46 210.94 106.34 220.00 112.00
C 220.19 124.18 241.00 142.33 230.25 155.25 C 219.49 168.16 207.33 170.58 194.23 179.23 C 181.13 187.88 170.48 195.28 158.00 203.00 Z"/>
</g>
<g fill="None" fill-opacity="0.0" stroke="#47506B" stroke-opacity="1.00" stroke-width="0.3"><path d="
M 158.00 203.00 
C 154.99 203.86 151.57 205.74 149.00 207.00
C 163.32 202.17 183.04 200.84 196.68 194.68 C 210.32 188.52 233.31 192.87 240.75 177.75 C 248.20 162.64 235.41 143.39 232.67 128.33 C 229.94 113.27 223.46 95.77 219.69 80.31 C 215.93 64.84 212.00 47.34 207.00 32.00
C 206.60 30.76 205.76 29.86 206.00 28.00
C 206.00 28.00 206.00 27.50 206.00 27.00
C 205.53 27.50 203.58 26.60 203.00 27.00
C 206.43 39.64 211.40 53.00 214.22 65.78 C 217.04 78.56 224.14 92.30 221.00 104.00
C 227.24 108.24 227.92 120.04 231.00 128.00 C 234.08 135.96 234.27 147.40 238.07 154.93 C 241.88 162.45 243.30 174.59 236.08 180.08 C 228.87 185.58 219.85 186.95 211.22 189.22 C 202.59 191.50 192.81 193.65 184.02 196.02 C 175.24 198.40 166.61 200.53 158.00 203.00 Z"/>
</g>
<g fill="None" fill-opacity="0.0" stroke="#5D5D60" stroke-opacity="0.95" stroke-width="0.3"><path d="
M 206.00 28.00 
C 205.76 29.86 206.60 30.76 207.00 32.00
C 207.03 30.91 208.32 30.18 207.00 29.00
C 219.69 29.71 244.77 24.15 247.33 41.67 C 249.88 59.20 247.17 76.33 248.00 94.00 C 248.83 111.67 247.36 129.38 248.00 147.00 C 248.64 164.62 246.69 183.24 249.00 200.00
C 249.13 199.65 249.67 199.17 250.00 199.00
L 250.00 198.00
C 248.33 166.40 248.33 131.53 250.00 100.00
L 250.00 39.00
C 246.99 32.01 241.26 28.48 234.00 27.00
C 225.61 27.05 215.22 28.83 206.00 28.00 Z"/>
</g>
<g fill="None" fill-opacity="0.0" stroke="#6D6D72" stroke-opacity="0.99" stroke-width="0.3"><path d="
M 207.00 32.00 
C 212.00 47.34 215.93 64.84 219.69 80.31 C 223.46 95.77 229.94 113.27 232.67 128.33 C 235.41 143.39 248.20 162.64 240.75 177.75 C 233.31 192.87 210.32 188.52 196.68 194.68 C 183.04 200.84 163.32 202.17 149.00 207.00
C 147.85 207.56 144.73 208.47 144.00 209.00
C 143.71 209.51 142.56 211.81 142.00 212.00
C 159.56 212.00 184.14 212.84 201.00 212.00 C 217.86 211.16 242.10 218.44 249.00 200.00
C 246.69 183.24 248.64 164.62 248.00 147.00 C 247.36 129.38 248.83 111.67 248.00 94.00 C 247.17 76.33 249.88 59.20 247.33 41.67 C 244.77 24.15 219.69 29.71 207.00 29.00
C 208.32 30.18 207.03 30.91 207.00 32.00 Z"/>
</g>
<g fill="None" fill-opacity="0.0" stroke="#0E0700" stroke-opacity="0.98" stroke-width="0.3"><path d="
M 39.00 77.00 
C 38.59 78.38 39.00 80.55 39.00 82.00
C 39.00 90.61 37.72 101.63 39.00 110.00 C 40.28 118.37 35.58 130.51 39.00 138.00
C 40.16 138.52 40.32 139.11 41.00 140.00
C 50.11 144.16 55.06 134.39 52.00 125.00 C 48.94 115.61 44.87 127.78 47.00 136.00
C 39.56 134.64 43.86 123.25 43.00 116.00 C 42.14 108.75 43.65 98.52 43.00 91.00
C 43.00 88.61 41.77 80.08 44.00 79.00
C 45.00 79.00 46.00 79.00 47.00 79.00
C 48.30 84.00 43.34 95.76 52.00 94.00
C 57.20 86.49 47.35 64.15 39.00 77.00 Z"/>
</g>
<g fill="None" fill-opacity="0.0" stroke="#7E5515" stroke-opacity="0.97" stroke-width="0.3"><path d="
M 106.00 140.00 
C 106.00 118.00 106.00 96.00 106.00 74.00
C 102.19 76.67 105.69 90.95 105.00 96.00 C 104.31 101.05 104.50 113.98 105.00 119.00 C 105.50 124.02 102.31 137.42 106.00 140.00 Z"/>
</g>
<g fill="None" fill-opacity="0.0" stroke="#0A0502" stroke-opacity="1.00" stroke-width="0.3"><path d="
M 106.00 140.00 
C 110.97 143.48 119.97 139.14 118.00 133.00 C 116.03 126.86 119.25 120.06 118.00 114.00 C 116.75 107.94 117.36 105.29 118.00 99.00 C 118.64 92.71 116.79 85.96 118.00 80.00 C 119.21 74.05 109.85 71.31 106.00 74.00
C 106.00 96.00 106.00 118.00 106.00 140.00
M 114.00 79.00 
C 114.00 87.67 114.00 96.33 114.00 105.00
C 107.74 106.13 109.98 96.20 110.00 92.00 C 110.02 87.80 107.66 77.91 114.00 79.00
M 114.00 110.00 
C 114.00 118.67 114.00 127.33 114.00 136.00
C 107.74 137.13 109.98 127.20 110.00 123.00 C 110.02 118.80 107.66 108.91 114.00 110.00 Z"/>
</g>
<g fill="None" fill-opacity="0.0" stroke="#9A8E33" stroke-opacity="0.91" stroke-width="0.3"><path d="
M 38.00 80.00 
C 38.00 80.50 38.00 81.50 38.00 82.00
C 38.34 82.23 39.00 82.00 39.00 82.00
C 39.00 80.55 38.59 78.38 39.00 77.00
C 38.21 78.21 38.01 78.22 38.00 80.00 Z"/>
</g>
<g fill="None" fill-opacity="0.0" stroke="#E3A72D" stroke-opacity="0.88" stroke-width="0.3"><path d="
M 83.00 95.00 
C 82.26 96.87 80.22 95.21 79.00 96.00
C 78.69 100.50 79.41 106.67 79.00 111.00 C 78.59 115.33 79.79 122.28 79.00 126.00 C 78.21 129.72 81.17 138.44 78.00 140.00
C 77.40 140.29 75.68 140.00 75.00 140.00
C 74.50 140.00 74.00 140.00 74.00 140.00
C 78.21 150.42 86.60 159.14 91.77 169.23 C 96.94 179.32 104.30 189.10 110.00 199.00
C 108.19 191.45 105.65 177.61 103.78 169.22 C 101.90 160.83 93.77 147.61 97.00 140.00
C 81.17 145.77 88.51 118.47 87.00 111.00 C 85.49 103.53 88.91 104.99 87.00 98.00 C 85.09 91.01 92.56 93.99 95.00 92.00
C 95.81 87.92 92.07 75.98 100.00 78.00
C 94.85 72.93 92.40 84.43 94.00 90.00
C 85.18 88.20 86.28 96.78 85.00 102.00
C 85.97 99.29 83.53 96.95 83.00 95.00 Z"/>
</g>
<g fill="None" fill-opacity="0.0" stroke="#785513" stroke-opacity="0.98" stroke-width="0.3"><path d="
M 95.00 92.00 
C 98.00 89.56 94.82 82.44 96.00 79.00
C 97.33 79.00 98.67 79.00 100.00 79.00
C 100.00 79.00 99.77 78.35 100.00 78.00
C 92.07 75.98 95.81 87.92 95.00 92.00 Z"/>
</g>
<g fill="None" fill-opacity="0.0" stroke="#927B40" stroke-opacity="0.91" stroke-width="0.3"><path d="
M 43.00 91.00 
C 43.00 90.96 44.00 91.00 44.00 91.00
C 44.36 87.03 43.73 82.98 44.00 79.00
C 41.77 80.08 43.00 88.61 43.00 91.00 Z"/>
</g>
<g fill="None" fill-opacity="0.0" stroke="#100600" stroke-opacity="1.00" stroke-width="0.3"><path d="
M 95.00 92.00 
C 92.56 93.99 85.09 91.01 87.00 98.00 C 88.91 104.99 85.49 103.53 87.00 111.00 C 88.51 118.47 81.17 145.77 97.00 140.00
C 100.64 131.43 100.25 121.52 100.00 111.00 C 99.75 100.48 100.00 89.55 100.00 79.00
C 98.67 79.00 97.33 79.00 96.00 79.00
C 94.82 82.44 98.00 89.56 95.00 92.00
M 95.00 136.00 
C 94.69 136.15 92.31 136.15 92.00 136.00
C 89.22 134.63 91.01 119.24 91.00 116.00 C 90.99 112.76 89.25 97.35 92.00 96.00
C 92.31 95.85 94.69 95.85 95.00 96.00
C 97.78 97.37 95.99 112.76 96.00 116.00 C 96.01 119.24 97.75 134.65 95.00 136.00 Z"/>
</g>
<g fill="None" fill-opacity="0.0" stroke="#D09F44" stroke-opacity="0.95" stroke-width="0.3"><path d="
M 114.00 79.00 
C 107.66 77.91 110.02 87.80 110.00 92.00 C 109.98 96.20 107.74 106.13 114.00 105.00
C 114.00 96.33 114.00 87.67 114.00 79.00 Z"/>
</g>
<g fill="None" fill-opacity="0.0" stroke="#B6B253" stroke-opacity="0.67" stroke-width="0.3"><path d="
M 38.00 136.00 
C 37.95 136.35 36.98 136.94 37.00 137.00
C 37.87 137.91 37.85 137.48 39.00 138.00
C 35.58 130.51 40.28 118.37 39.00 110.00 C 37.72 101.63 39.00 90.61 39.00 82.00
C 39.00 82.00 38.34 82.23 38.00 82.00
C 38.00 99.39 40.48 118.82 38.00 136.00 Z"/>
</g>
<g fill="None" fill-opacity="0.0" stroke="#331200" stroke-opacity="1.00" stroke-width="0.3"><path d="
M 128.00 83.00 
C 125.60 81.80 122.74 85.01 125.32 86.66 C 127.90 88.31 130.28 84.14 128.00 83.00 Z"/>
</g>
<g fill="None" fill-opacity="0.0" stroke="#F6DF1F" stroke-opacity="0.60" stroke-width="0.3"><path d="
M 41.00 140.00 
C 51.02 153.11 66.45 167.43 78.75 178.25 C 91.05 189.07 103.48 210.61 119.00 215.00
C 121.74 215.42 126.03 215.46 128.00 214.00
C 119.77 214.62 113.56 205.18 110.00 199.00
C 104.30 189.10 96.94 179.32 91.77 169.23 C 86.60 159.14 78.21 150.42 74.00 140.00
C 73.77 139.84 74.00 138.50 74.00 138.00
C 72.96 137.01 69.51 134.80 69.00 133.00
C 68.27 142.48 55.44 142.34 56.00 134.00 C 56.57 125.65 53.24 115.57 56.00 108.00
C 50.97 104.24 47.18 96.96 44.00 91.00
C 44.00 91.00 43.00 90.96 43.00 91.00
C 43.65 98.52 42.14 108.75 43.00 116.00 C 43.86 123.25 39.56 134.64 47.00 136.00
C 44.87 127.78 48.94 115.61 52.00 125.00 C 55.06 134.39 50.11 144.16 41.00 140.00 Z"/>
</g>
<g fill="None" fill-opacity="0.0" stroke="#160B03" stroke-opacity="0.98" stroke-width="0.3"><path d="
M 56.00 108.00 
C 53.24 115.57 56.57 125.65 56.00 134.00 C 55.44 142.34 68.27 142.48 69.00 133.00
C 69.09 125.17 68.88 115.66 69.00 108.00 C 69.12 100.34 71.09 89.41 60.00 92.00
C 60.63 97.05 66.41 97.78 64.00 105.00
C 60.95 104.86 57.26 104.53 56.00 108.00
M 64.00 123.00 
C 64.00 127.33 64.00 131.67 64.00 136.00
C 56.22 135.23 61.59 123.47 60.00 118.00
C 60.00 114.70 58.65 108.08 64.00 109.00
C 64.00 113.67 64.00 118.33 64.00 123.00 Z"/>
</g>
<g fill="None" fill-opacity="0.0" stroke="#040400" stroke-opacity="1.00" stroke-width="0.3"><path d="
M 75.00 94.00 
C 71.99 100.08 76.37 110.14 75.00 117.00 C 73.63 123.86 75.64 132.91 75.00 140.00
C 75.68 140.00 77.40 140.29 78.00 140.00
C 79.19 134.16 76.41 123.34 78.00 118.00 C 79.59 112.66 74.60 98.87 79.00 96.00
C 80.22 95.21 82.26 96.87 83.00 95.00
C 82.75 94.09 83.12 92.94 83.00 92.00
C 79.77 92.01 76.97 91.26 75.00 94.00 Z"/>
</g>
<g fill="None" fill-opacity="0.0" stroke="#0B0300" stroke-opacity="1.00" stroke-width="0.3"><path d="
M 128.00 140.00 
C 128.00 124.00 128.00 108.00 128.00 92.00
C 126.67 92.00 125.33 92.00 124.00 92.00
C 124.00 108.00 124.00 124.00 124.00 140.00
C 125.08 139.56 127.00 140.58 128.00 140.00 Z"/>
</g>
<g fill="None" fill-opacity="0.0" stroke="#6E4509" stroke-opacity="1.00" stroke-width="0.3"><path d="
M 128.00 140.00 
C 131.05 138.24 128.52 127.71 129.00 124.00 C 129.48 120.29 129.29 110.67 129.00 107.00 C 128.71 103.33 130.90 93.67 128.00 92.00
C 128.00 108.00 128.00 124.00 128.00 140.00 Z"/>
</g>
<g fill="None" fill-opacity="0.0" stroke="#140803" stroke-opacity="1.00" stroke-width="0.3"><path d="
M 146.00 92.00 
C 142.00 92.00 138.00 92.00 134.00 92.00
C 132.57 97.05 137.77 96.06 141.00 96.00
C 139.33 110.84 135.76 125.20 134.00 140.00
C 138.00 140.00 142.00 140.00 146.00 140.00
C 147.43 134.95 142.23 135.94 139.00 136.00
C 141.43 121.34 144.62 106.90 146.00 92.00 Z"/>
</g>
<g fill="None" fill-opacity="0.0" stroke="#493808" stroke-opacity="0.96" stroke-width="0.3"><path d="
M 74.00 138.00 
C 74.00 138.50 73.77 139.84 74.00 140.00
C 74.00 140.00 74.50 140.00 75.00 140.00
C 75.64 132.91 73.63 123.86 75.00 117.00 C 76.37 110.14 71.99 100.08 75.00 94.00
C 71.38 99.02 74.86 109.50 74.00 116.00 C 73.14 122.50 74.00 131.29 74.00 138.00 Z"/>
</g>
<g fill="None" fill-opacity="0.0" stroke="#593A00" stroke-opacity="0.96" stroke-width="0.3"><path d="
M 78.00 140.00 
C 81.17 138.44 78.21 129.72 79.00 126.00 C 79.79 122.28 78.59 115.33 79.00 111.00 C 79.41 106.67 78.69 100.50 79.00 96.00
C 74.60 98.87 79.59 112.66 78.00 118.00 C 76.41 123.34 79.19 134.16 78.00 140.00 Z"/>
</g>
<g fill="None" fill-opacity="0.0" stroke="#684A21" stroke-opacity="0.97" stroke-width="0.3"><path d="
M 92.00 136.00 
C 92.00 122.67 92.00 109.33 92.00 96.00
C 89.25 97.35 90.99 112.76 91.00 116.00 C 91.01 119.24 89.22 134.63 92.00 136.00 Z"/>
</g>
<g fill="None" fill-opacity="0.0" stroke="#E3AD54" stroke-opacity="0.94" stroke-width="0.3"><path d="
M 92.00 136.00 
C 92.31 136.15 94.69 136.15 95.00 136.00
C 95.00 122.67 95.00 109.33 95.00 96.00
C 94.69 95.85 92.31 95.85 92.00 96.00
C 92.00 109.33 92.00 122.67 92.00 136.00 Z"/>
</g>
<g fill="None" fill-opacity="0.0" stroke="#77581C" stroke-opacity="0.98" stroke-width="0.3"><path d="
M 95.00 136.00 
C 97.75 134.65 96.01 119.24 96.00 116.00 C 95.99 112.76 97.78 97.37 95.00 96.00
C 95.00 109.33 95.00 122.67 95.00 136.00 Z"/>
</g>
<g fill="None" fill-opacity="0.0" stroke="#000000" stroke-opacity="0.00" stroke-width="0.3"><path d="
M 0.00 217.00 
L 117.00 217.00
C 103.32 206.83 89.21 192.81 77.25 179.75 C 65.29 166.69 49.58 154.95 38.75 141.25 C 27.92 127.54 7.01 117.06 1.00 101.00
C 0.87 100.65 0.34 100.17 0.00 100.00
L 0.00 217.00 Z"/>
</g>
<g fill="None" fill-opacity="0.0" stroke="#BB7127" stroke-opacity="0.46" stroke-width="0.3"><path d="
M 1.00 101.00 
C 7.01 117.06 27.92 127.54 38.75 141.25 C 49.58 154.95 65.29 166.69 77.25 179.75 C 89.21 192.81 103.32 206.83 117.00 217.00
L 129.00 217.00
C 129.17 216.67 129.68 216.20 130.00 216.00
C 129.75 215.91 129.12 215.26 129.00 215.00
C 126.19 217.26 121.49 215.71 119.00 215.00
C 103.48 210.61 91.05 189.07 78.75 178.25 C 66.45 167.43 51.02 153.11 41.00 140.00
C 40.32 139.11 40.16 138.52 39.00 138.00
C 37.85 137.48 37.87 137.91 37.00 137.00
C 26.78 126.28 11.93 115.40 4.00 103.00
C 3.66 102.46 2.79 99.86 2.00 100.00
C 1.95 100.35 1.29 101.06 1.00 101.00 Z"/>
</g>
<g fill="None" fill-opacity="0.0" stroke="#57575B" stroke-opacity="0.85" stroke-width="0.3"><path d="
M 250.00 198.00 
L 250.00 100.00
C 248.33 131.53 248.33 166.40 250.00 198.00 Z"/>
</g>
<g fill="None" fill-opacity="0.0" stroke="#FBC631" stroke-opacity="0.59" stroke-width="0.3"><path d="
M 37.00 137.00 
C 36.98 136.94 37.95 136.35 38.00 136.00
C 29.19 123.58 13.41 115.08 4.00 103.00
C 11.93 115.40 26.78 126.28 37.00 137.00 Z"/>
</g>
<g fill="None" fill-opacity="0.0" stroke="#CFAA3F" stroke-opacity="0.88" stroke-width="0.3"><path d="
M 60.00 118.00 
C 60.36 119.28 63.64 121.54 64.00 123.00
C 64.00 118.33 64.00 113.67 64.00 109.00
C 58.65 108.08 60.00 114.70 60.00 118.00 Z"/>
</g>
<g fill="None" fill-opacity="0.0" stroke="#D09A3A" stroke-opacity="0.95" stroke-width="0.3"><path d="
M 114.00 110.00 
C 107.66 108.91 110.02 118.80 110.00 123.00 C 109.98 127.20 107.74 137.13 114.00 136.00
C 114.00 127.33 114.00 118.67 114.00 110.00 Z"/>
</g>
<g fill="None" fill-opacity="0.0" stroke="#D8D030" stroke-opacity="0.62" stroke-width="0.3"><path d="
M 64.00 123.00 
C 63.64 121.54 60.36 119.28 60.00 118.00
C 61.59 123.47 56.22 135.23 64.00 136.00
C 64.00 131.67 64.00 127.33 64.00 123.00 Z"/>
</g>
<g fill="None" fill-opacity="0.0" stroke="#AB494A" stroke-opacity="0.99" stroke-width="0.3"><path d="
M 207.00 139.00 
C 205.79 141.12 203.84 142.60 202.00 144.00
C 201.08 144.70 200.74 145.04 200.00 146.00
C 198.23 148.32 196.27 150.27 194.00 152.00
C 193.08 152.70 192.74 153.04 192.00 154.00
C 190.23 156.32 188.27 158.27 186.00 160.00
C 185.08 160.70 184.74 161.04 184.00 162.00
C 182.23 164.32 180.27 166.27 178.00 168.00
C 177.08 168.70 176.74 169.04 176.00 170.00
C 174.23 172.32 172.27 174.27 170.00 176.00
C 169.08 176.70 168.74 177.04 168.00 178.00
C 166.23 180.32 164.27 182.27 162.00 184.00
C 161.08 184.70 160.74 185.04 160.00 186.00
C 153.13 194.98 143.66 202.78 136.00 211.00
C 136.00 210.29 137.55 213.31 137.00 213.00
C 137.12 212.95 139.06 211.98 139.00 212.00
C 144.39 204.28 151.88 197.21 157.25 190.25 C 162.62 183.28 171.34 176.55 177.10 170.10 C 182.86 163.65 191.69 156.03 197.25 150.25 C 202.80 144.46 216.64 133.97 210.00 125.00
C 210.44 129.66 209.21 135.12 207.00 139.00 Z"/>
</g>
<g fill="None" fill-opacity="0.0" stroke="#B65F33" stroke-opacity="1.00" stroke-width="0.3"><path d="
M 202.00 144.00 
C 203.84 142.60 205.79 141.12 207.00 139.00
C 206.10 140.34 203.27 142.74 202.00 144.00 Z"/>
</g>
<g fill="None" fill-opacity="0.0" stroke="#B4623A" stroke-opacity="1.00" stroke-width="0.3"><path d="
M 194.00 152.00 
C 196.27 150.27 198.23 148.32 200.00 146.00
C 198.14 147.87 195.92 150.10 194.00 152.00 Z"/>
</g>
<g fill="None" fill-opacity="0.0" stroke="#BE6242" stroke-opacity="1.00" stroke-width="0.3"><path d="
M 186.00 160.00 
C 188.27 158.27 190.23 156.32 192.00 154.00
C 190.14 155.87 187.92 158.10 186.00 160.00 Z"/>
</g>
<g fill="None" fill-opacity="0.0" stroke="#B7623F" stroke-opacity="1.00" stroke-width="0.3"><path d="
M 178.00 168.00 
C 180.27 166.27 182.23 164.32 184.00 162.00
C 182.14 163.87 179.92 166.10 178.00 168.00 Z"/>
</g>
<g fill="None" fill-opacity="0.0" stroke="#BD6342" stroke-opacity="1.00" stroke-width="0.3"><path d="
M 170.00 176.00 
C 172.27 174.27 174.23 172.32 176.00 170.00
C 174.14 171.87 171.92 174.10 170.00 176.00 Z"/>
</g>
<g fill="None" fill-opacity="0.0" stroke="#B7623F" stroke-opacity="1.00" stroke-width="0.3"><path d="
M 162.00 184.00 
C 164.27 182.27 166.23 180.32 168.00 178.00
C 166.14 179.87 163.92 182.10 162.00 184.00 Z"/>
</g>
<g fill="None" fill-opacity="0.0" stroke="#BE613F" stroke-opacity="0.93" stroke-width="0.3"><path d="
M 132.00 213.00 
C 131.20 213.38 129.89 213.67 129.00 214.00
C 129.25 214.25 129.00 215.00 129.00 215.00
C 129.12 215.26 129.75 215.91 130.00 216.00
C 131.09 215.32 131.86 215.40 133.00 215.00
C 133.33 214.74 135.38 211.66 136.00 211.00
C 143.66 202.78 153.13 194.98 160.00 186.00
C 155.71 190.33 150.32 195.65 145.75 199.75 C 141.19 203.85 137.47 210.41 132.00 213.00 Z"/>
</g>
<g fill="None" fill-opacity="0.0" stroke="#000000" stroke-opacity="0.00" stroke-width="0.3"><path d="
M 249.00 200.00 
C 242.10 218.44 217.86 211.16 201.00 212.00 C 184.14 212.84 159.56 212.00 142.00 212.00
C 141.14 212.00 139.83 211.77 139.00 212.00
C 139.06 211.98 137.12 212.95 137.00 213.00
C 135.89 213.47 134.41 214.50 133.00 215.00
C 131.86 215.40 131.09 215.32 130.00 216.00
C 129.68 216.20 129.17 216.67 129.00 217.00
L 250.00 217.00
L 250.00 199.00
C 249.67 199.17 249.13 199.65 249.00 200.00 Z"/>
</g>
<g fill="None" fill-opacity="0.0" stroke="#9B2F3E" stroke-opacity="0.62" stroke-width="0.3"><path d="
M 133.00 215.00 
C 134.41 214.50 135.89 213.47 137.00 213.00
C 137.55 213.31 136.00 210.29 136.00 211.00
C 135.38 211.66 133.33 214.74 133.00 215.00 Z"/>
</g>
<g fill="None" fill-opacity="0.0" stroke="#D69618" stroke-opacity="0.66" stroke-width="0.3"><path d="
M 119.00 215.00 
C 121.49 215.71 126.19 217.26 129.00 215.00
C 129.00 215.00 129.25 214.25 129.00 214.00
C 129.00 214.00 128.50 213.96 128.00 214.00
C 126.03 215.46 121.74 215.42 119.00 215.00 Z"/>
</g>
<g fill="#000000" fill-opacity="0.00" stroke="None">
<path d="
M 0.00 88.00 
C 1.55 86.88 1.94 84.60 3.00 83.00
C 12.20 69.17 28.10 57.67 39.75 45.75 C 51.40 33.83 63.50 18.59 77.00 9.00
C 78.45 7.97 79.48 7.66 81.00 7.00
C 88.18 3.89 101.84 5.82 105.00 15.00
C 105.31 15.24 106.70 15.24 107.00 15.00
C 113.96 9.39 122.76 5.20 130.00 0.00
L 0.00 0.00
L 0.00 88.00 Z"/>
</g>
<g fill="#B81E50" fill-opacity="0.68" stroke="None">
<path d="
M 107.00 15.00 
C 107.37 18.19 111.12 23.10 115.00 25.00
C 115.40 25.20 116.00 25.00 116.00 25.00
C 128.68 24.74 142.28 17.09 155.00 15.00
C 155.49 14.92 156.00 15.00 156.00 15.00
C 155.83 14.57 156.00 14.00 156.00 14.00
C 152.19 9.25 149.11 2.46 143.00 0.00
L 130.00 0.00
C 122.76 5.20 113.96 9.39 107.00 15.00 Z"/>
</g>
<g fill="#000000" fill-opacity="0.00" stroke="None">
<path d="
M 156.00 14.00 
C 156.25 13.75 157.00 14.00 157.00 14.00
C 167.52 10.64 175.56 8.08 187.00 7.00 C 198.44 5.92 203.17 17.14 206.00 26.00
C 214.87 25.20 225.57 25.28 234.00 27.00
C 241.26 28.48 246.99 32.01 250.00 39.00
L 250.00 0.00
L 143.00 0.00
C 149.11 2.46 152.19 9.25 156.00 14.00 Z"/>
</g>
<g fill="#C77621" fill-opacity="0.47" stroke="None">
<path d="
M 81.00 7.00 
C 81.24 7.07 81.65 7.95 82.00 8.00
C 91.81 9.41 97.68 7.97 104.00 17.00
C 104.44 16.84 105.00 17.00 105.00 17.00
C 105.23 16.84 105.15 15.45 105.00 15.00
C 101.84 5.82 88.18 3.89 81.00 7.00 Z"/>
</g>
<g fill="#C17116" fill-opacity="0.60" stroke="None">
<path d="
M 77.00 9.00 
C 64.07 19.87 52.10 34.08 40.25 46.25 C 28.39 58.42 13.33 69.79 3.00 83.00
C 1.94 84.60 1.55 86.88 0.00 88.00
L 0.00 100.00
C 0.34 100.17 0.87 100.65 1.00 101.00
C 1.29 101.06 1.95 100.35 2.00 100.00
C 3.07 92.60 2.69 83.96 9.25 79.25 C 15.80 74.54 18.28 69.56 23.75 64.75 C 29.22 59.95 33.44 55.13 38.25 50.25 C 43.05 45.37 48.15 41.30 52.25 36.25 C 56.35 31.19 63.70 27.15 66.75 21.75 C 69.81 16.35 80.59 12.75 82.00 8.00
C 81.65 7.95 81.24 7.07 81.00 7.00
C 79.48 7.66 78.45 7.97 77.00 9.00 Z"/>
</g>
<g fill="#1E3060" fill-opacity="0.51" stroke="None">
<path d="
M 157.00 14.00 
C 157.47 14.23 157.76 15.62 158.00 16.00
C 162.77 17.58 170.83 11.37 176.02 11.02 C 181.22 10.68 189.88 6.47 194.74 11.26 C 199.60 16.05 203.25 20.06 203.00 27.00
C 203.58 26.60 205.53 27.50 206.00 27.00
C 206.00 26.50 206.00 26.00 206.00 26.00
C 203.17 17.14 198.44 5.92 187.00 7.00 C 175.56 8.08 167.52 10.64 157.00 14.00 Z"/>
</g>
<g fill="#F8E214" fill-opacity="0.60" stroke="None">
<path d="
M 2.00 100.00 
C 2.79 99.86 3.66 102.46 4.00 103.00
C 13.41 115.08 29.19 123.58 38.00 136.00
C 40.48 118.82 38.00 99.39 38.00 82.00
C 38.00 81.50 38.00 80.50 38.00 80.00
C 27.13 62.24 46.05 50.10 61.23 43.23 C 76.41 36.36 88.40 22.63 104.00 17.00
C 97.68 7.97 91.81 9.41 82.00 8.00
C 80.59 12.75 69.81 16.35 66.75 21.75 C 63.70 27.15 56.35 31.19 52.25 36.25 C 48.15 41.30 43.05 45.37 38.25 50.25 C 33.44 55.13 29.22 59.95 23.75 64.75 C 18.28 69.56 15.80 74.54 9.25 79.25 C 2.69 83.96 3.07 92.60 2.00 100.00 Z"/>
</g>
<g fill="#C06B3A" fill-opacity="0.07" stroke="None">
<path d="
M 3.00 83.00 
C 13.33 69.79 28.39 58.42 40.25 46.25 C 52.10 34.08 64.07 19.87 77.00 9.00
C 63.50 18.59 51.40 33.83 39.75 45.75 C 28.10 57.67 12.20 69.17 3.00 83.00 Z"/>
</g>
<g fill="#40539C" fill-opacity="0.60" stroke="None">
<path d="
M 158.00 16.00 
C 160.35 19.78 162.46 22.88 164.00 27.00
C 164.50 27.00 165.00 27.00 165.00 27.00
C 177.67 27.00 190.33 27.00 203.00 27.00
C 203.25 20.06 199.60 16.05 194.74 11.26 C 189.88 6.47 181.22 10.68 176.02 11.02 C 170.83 11.37 162.77 17.58 158.00 16.00 Z"/>
</g>
<g fill="#5C4082" fill-opacity="0.62" stroke="None">
<path d="
M 156.00 15.00 
C 157.65 19.21 160.46 23.30 163.00 27.00
C 163.22 27.25 164.00 27.00 164.00 27.00
C 162.46 22.88 160.35 19.78 158.00 16.00
C 157.76 15.62 157.47 14.23 157.00 14.00
C 157.00 14.00 156.25 13.75 156.00 14.00
C 156.00 14.00 155.83 14.57 156.00 15.00 Z"/>
</g>
<g fill="#B25143" fill-opacity="0.98" stroke="None">
<path d="
M 105.00 17.00 
C 115.46 21.37 121.38 35.69 130.75 42.25 C 140.13 48.81 147.07 60.70 156.25 67.75 C 165.43 74.80 172.32 86.67 181.75 93.25 C 191.19 99.83 197.50 114.62 208.00 119.00
C 207.80 118.60 208.00 118.00 208.00 118.00
C 190.33 105.65 177.51 86.02 161.25 71.75 C 144.99 57.49 130.22 40.22 115.00 25.00
C 111.12 23.10 107.37 18.19 107.00 15.00
C 106.70 15.24 105.31 15.24 105.00 15.00
C 105.15 15.45 105.23 16.84 105.00 17.00 Z"/>
</g>
<g fill="#A7275B" fill-opacity="0.88" stroke="None">
<path d="
M 116.00 25.00 
C 117.69 27.42 120.02 29.02 122.00 31.00
C 131.65 26.54 148.57 24.13 160.00 27.00
C 158.13 24.84 154.46 18.04 155.00 15.00
C 142.28 17.09 128.68 24.74 116.00 25.00 Z"/>
</g>
<g fill="#89336A" fill-opacity="0.99" stroke="None">
<path d="
M 160.00 27.00 
C 167.07 35.19 174.79 47.12 179.32 57.68 C 183.85 68.24 195.23 77.77 196.00 89.00
C 205.46 95.20 210.87 109.65 216.33 118.67 C 221.78 127.70 235.95 142.46 228.22 153.22 C 220.49 163.98 206.71 165.11 197.97 172.97 C 189.23 180.84 176.47 184.32 168.00 193.00
C 179.54 186.01 193.54 177.87 205.08 171.08 C 216.61 164.28 236.08 154.21 230.07 138.93 C 224.06 123.65 216.41 113.92 208.23 100.77 C 200.05 87.62 193.77 76.89 185.70 64.30 C 177.62 51.72 171.19 38.94 163.00 27.00
C 160.46 23.30 157.65 19.21 156.00 15.00
C 156.00 15.00 155.49 14.92 155.00 15.00
C 154.46 18.04 158.13 24.84 160.00 27.00 Z"/>
</g>
<g fill="#E5A628" fill-opacity="0.88" stroke="None">
<path d="
M 38.00 80.00 
C 38.01 78.22 38.21 78.21 39.00 77.00
C 47.35 64.15 57.20 86.49 52.00 94.00
C 43.34 95.76 48.30 84.00 47.00 79.00
C 46.00 79.00 45.00 79.00 44.00 79.00
C 43.73 82.98 44.36 87.03 44.00 91.00
C 47.18 96.96 50.97 104.24 56.00 108.00
C 57.26 104.53 60.95 104.86 64.00 105.00
C 66.41 97.78 60.63 97.05 60.00 92.00
C 71.09 89.41 69.12 100.34 69.00 108.00 C 68.88 115.66 69.09 125.17 69.00 133.00
C 69.51 134.80 72.96 137.01 74.00 138.00
C 74.00 131.29 73.14 122.50 74.00 116.00 C 74.86 109.50 71.38 99.02 75.00 94.00
C 76.97 91.26 79.77 92.01 83.00 92.00
C 82.06 84.93 78.13 77.11 77.01 69.99 C 75.89 62.87 71.08 52.56 73.33 45.33 C 75.58 38.10 81.88 32.39 89.07 32.07 C 96.27 31.75 105.26 24.96 112.00 26.00
C 109.87 23.87 106.30 20.67 105.00 18.00
C 104.80 17.60 105.00 17.00 105.00 17.00
C 105.00 17.00 104.44 16.84 104.00 17.00
C 88.40 22.63 76.41 36.36 61.23 43.23 C 46.05 50.10 27.13 62.24 38.00 80.00 Z"/>
</g>
<g fill="#BF673F" fill-opacity="0.99" stroke="None">
<path d="
M 105.00 18.00 
C 125.04 32.01 139.12 54.26 157.75 70.25 C 176.38 86.24 193.24 106.87 210.00 124.00
C 209.75 122.17 208.83 120.66 208.00 119.00
C 197.50 114.62 191.19 99.83 181.75 93.25 C 172.32 86.67 165.43 74.80 156.25 67.75 C 147.07 60.70 140.13 48.81 130.75 42.25 C 121.38 35.69 115.46 21.37 105.00 17.00
C 105.00 17.00 104.80 17.60 105.00 18.00 Z"/>
</g>
<g fill="#D58743" fill-opacity="0.99" stroke="None">
<path d="
M 112.00 26.00 
C 120.55 34.55 129.31 43.02 137.75 51.25 C 146.19 59.48 155.01 68.41 163.25 76.75 C 171.48 85.09 180.90 93.91 188.75 102.25 C 196.60 110.59 211.77 122.29 207.22 134.22 C 202.67 146.15 191.40 152.00 183.25 161.25 C 175.10 170.50 166.41 178.17 157.75 186.75 C 149.10 195.33 139.69 205.68 132.00 213.00
C 137.47 210.41 141.19 203.85 145.75 199.75 C 150.32 195.65 155.71 190.33 160.00 186.00
C 160.74 185.04 161.08 184.70 162.00 184.00
C 163.92 182.10 166.14 179.87 168.00 178.00
C 168.74 177.04 169.08 176.70 170.00 176.00
C 171.92 174.10 174.14 171.87 176.00 170.00
C 176.74 169.04 177.08 168.70 178.00 168.00
C 179.92 166.10 182.14 163.87 184.00 162.00
C 184.74 161.04 185.08 160.70 186.00 160.00
C 187.92 158.10 190.14 155.87 192.00 154.00
C 192.74 153.04 193.08 152.70 194.00 152.00
C 195.92 150.10 198.14 147.87 200.00 146.00
C 200.74 145.04 201.08 144.70 202.00 144.00
C 203.27 142.74 206.10 140.34 207.00 139.00
C 209.21 135.12 210.44 129.66 210.00 125.00
C 209.95 124.50 210.00 124.00 210.00 124.00
C 193.24 106.87 176.38 86.24 157.75 70.25 C 139.12 54.26 125.04 32.01 105.00 18.00
C 106.30 20.67 109.87 23.87 112.00 26.00 Z"/>
</g>
<g fill="#A8414C" fill-opacity="0.99" stroke="None">
<path d="
M 208.00 118.00 
C 202.34 106.43 187.89 99.48 179.75 89.25 C 171.62 79.02 159.90 69.91 150.75 60.25 C 141.60 50.58 131.37 40.37 122.00 31.00
C 120.02 29.02 117.69 27.42 116.00 25.00
C 116.00 25.00 115.40 25.20 115.00 25.00
C 130.22 40.22 144.99 57.49 161.25 71.75 C 177.51 86.02 190.33 105.65 208.00 118.00 Z"/>
</g>
<g fill="#D89C31" fill-opacity="0.99" stroke="None">
<path d="
M 83.00 92.00 
C 83.12 92.94 82.75 94.09 83.00 95.00
C 83.53 96.95 85.97 99.29 85.00 102.00
C 86.28 96.78 85.18 88.20 94.00 90.00
C 92.40 84.43 94.85 72.93 100.00 78.00
C 99.77 78.35 100.00 79.00 100.00 79.00
C 100.00 89.55 99.75 100.48 100.00 111.00 C 100.25 121.52 100.64 131.43 97.00 140.00
C 93.77 147.61 101.90 160.83 103.78 169.22 C 105.65 177.61 108.19 191.45 110.00 199.00
C 113.56 205.18 119.77 214.62 128.00 214.00
C 128.50 213.96 129.00 214.00 129.00 214.00
C 129.89 213.67 131.20 213.38 132.00 213.00
C 139.69 205.68 149.10 195.33 157.75 186.75 C 166.41 178.17 175.10 170.50 183.25 161.25 C 191.40 152.00 202.67 146.15 207.22 134.22 C 211.77 122.29 196.60 110.59 188.75 102.25 C 180.90 93.91 171.48 85.09 163.25 76.75 C 155.01 68.41 146.19 59.48 137.75 51.25 C 129.31 43.02 120.55 34.55 112.00 26.00
C 105.26 24.96 96.27 31.75 89.07 32.07 C 81.88 32.39 75.58 38.10 73.33 45.33 C 71.08 52.56 75.89 62.87 77.01 69.99 C 78.13 77.11 82.06 84.93 83.00 92.00
M 106.00 140.00 
C 102.31 137.42 105.50 124.02 105.00 119.00 C 104.50 113.98 104.31 101.05 105.00 96.00 C 105.69 90.95 102.19 76.67 106.00 74.00
C 109.85 71.31 119.21 74.05 118.00 80.00 C 116.79 85.96 118.64 92.71 118.00 99.00 C 117.36 105.29 116.75 107.94 118.00 114.00 C 119.25 120.06 116.03 126.86 118.00 133.00 C 119.97 139.14 110.97 143.48 106.00 140.00
M 128.00 83.00 
C 130.28 84.14 127.90 88.31 125.32 86.66 C 122.74 85.01 125.60 81.80 128.00 83.00
M 128.00 140.00 
C 127.00 140.58 125.08 139.56 124.00 140.00
C 124.00 124.00 124.00 108.00 124.00 92.00
C 125.33 92.00 126.67 92.00 128.00 92.00
C 130.90 93.67 128.71 103.33 129.00 107.00 C 129.29 110.67 129.48 120.29 129.00 124.00 C 128.52 127.71 131.05 138.24 128.00 140.00
M 146.00 92.00 
C 144.62 106.90 141.43 121.34 139.00 136.00
C 142.23 135.94 147.43 134.95 146.00 140.00
C 142.00 140.00 138.00 140.00 134.00 140.00
C 135.76 125.20 139.33 110.84 141.00 96.00
C 137.77 96.06 132.57 97.05 134.00 92.00
C 138.00 92.00 142.00 92.00 146.00 92.00 Z"/>
</g>
<g fill="#585959" fill-opacity="0.49" stroke="None">
<path d="
M 206.00 27.00 
C 206.00 27.50 206.00 28.00 206.00 28.00
C 215.22 28.83 225.61 27.05 234.00 27.00
C 225.57 25.28 214.87 25.20 206.00 26.00
C 206.00 26.00 206.00 26.50 206.00 27.00 Z"/>
</g>
<g fill="#A03063" fill-opacity="1.00" stroke="None">
<path d="
M 122.00 31.00 
C 131.37 40.37 141.60 50.58 150.75 60.25 C 159.90 69.91 171.62 79.02 179.75 89.25 C 187.89 99.48 202.34 106.43 208.00 118.00
C 208.00 118.00 207.80 118.60 208.00 119.00
C 208.83 120.66 209.75 122.17 210.00 124.00
C 210.00 124.00 209.95 124.50 210.00 125.00
C 216.64 133.97 202.80 144.46 197.25 150.25 C 191.69 156.03 182.86 163.65 177.10 170.10 C 171.34 176.55 162.62 183.28 157.25 190.25 C 151.88 197.21 144.39 204.28 139.00 212.00
C 139.83 211.77 141.14 212.00 142.00 212.00
C 142.56 211.81 143.71 209.51 144.00 209.00
C 147.47 202.90 160.41 197.60 168.00 193.00
C 176.47 184.32 189.23 180.84 197.97 172.97 C 206.71 165.11 220.49 163.98 228.22 153.22 C 235.95 142.46 221.78 127.70 216.33 118.67 C 210.87 109.65 205.46 95.20 196.00 89.00
C 195.23 77.77 183.85 68.24 179.32 57.68 C 174.79 47.12 167.07 35.19 160.00 27.00
C 148.57 24.13 131.65 26.54 122.00 31.00 Z"/>
</g>
<g fill="#6A4B77" fill-opacity="1.00" stroke="None">
<path d="
M 168.00 193.00 
C 160.41 197.60 147.47 202.90 144.00 209.00
C 144.73 208.47 147.85 207.56 149.00 207.00
C 151.57 205.74 154.99 203.86 158.00 203.00
C 170.48 195.28 181.13 187.88 194.23 179.23 C 207.33 170.58 219.49 168.16 230.25 155.25 C 241.00 142.33 220.19 124.18 220.00 112.00
C 210.94 106.34 207.47 94.46 200.74 85.26 C 194.01 76.05 189.94 65.22 182.70 56.30 C 175.45 47.39 171.18 36.49 165.00 27.00
C 165.00 27.00 164.50 27.00 164.00 27.00
C 164.00 27.00 163.22 27.25 163.00 27.00
C 171.19 38.94 177.62 51.72 185.70 64.30 C 193.77 76.89 200.05 87.62 208.23 100.77 C 216.41 113.92 224.06 123.65 230.07 138.93 C 236.08 154.21 216.61 164.28 205.08 171.08 C 193.54 177.87 179.54 186.01 168.00 193.00 Z"/>
</g>
<g fill="#515E8B" fill-opacity="1.00" stroke="None">
<path d="
M 158.00 203.00 
C 166.61 200.53 175.24 198.40 184.02 196.02 C 192.81 193.65 202.59 191.50 211.22 189.22 C 219.85 186.95 228.87 185.58 236.08 180.08 C 243.30 174.59 241.88 162.45 238.07 154.93 C 234.27 147.40 234.08 135.96 231.00 128.00 C 227.92 120.04 227.24 108.24 221.00 104.00
C 224.14 92.30 217.04 78.56 214.22 65.78 C 211.40 53.00 206.43 39.64 203.00 27.00
C 190.33 27.00 177.67 27.00 165.00 27.00
C 171.18 36.49 175.45 47.39 182.70 56.30 C 189.94 65.22 194.01 76.05 200.74 85.26 C 207.47 94.46 210.94 106.34 220.00 112.00
C 220.19 124.18 241.00 142.33 230.25 155.25 C 219.49 168.16 207.33 170.58 194.23 179.23 C 181.13 187.88 170.48 195.28 158.00 203.00 Z"/>
</g>
<g fill="#47506B" fill-opacity="1.00" stroke="None">
<path d="
M 158.00 203.00 
C 154.99 203.86 151.57 205.74 149.00 207.00
C 163.32 202.17 183.04 200.84 196.68 194.68 C 210.32 188.52 233.31 192.87 240.75 177.75 C 248.20 162.64 235.41 143.39 232.67 128.33 C 229.94 113.27 223.46 95.77 219.69 80.31 C 215.93 64.84 212.00 47.34 207.00 32.00
C 206.60 30.76 205.76 29.86 206.00 28.00
C 206.00 28.00 206.00 27.50 206.00 27.00
C 205.53 27.50 203.58 26.60 203.00 27.00
C 206.43 39.64 211.40 53.00 214.22 65.78 C 217.04 78.56 224.14 92.30 221.00 104.00
C 227.24 108.24 227.92 120.04 231.00 128.00 C 234.08 135.96 234.27 147.40 238.07 154.93 C 241.88 162.45 243.30 174.59 236.08 180.08 C 228.87 185.58 219.85 186.95 211.22 189.22 C 202.59 191.50 192.81 193.65 184.02 196.02 C 175.24 198.40 166.61 200.53 158.00 203.00 Z"/>
</g>
<g fill="#5D5D60" fill-opacity="0.95" stroke="None">
<path d="
M 206.00 28.00 
C 205.76 29.86 206.60 30.76 207.00 32.00
C 207.03 30.91 208.32 30.18 207.00 29.00
C 219.69 29.71 244.77 24.15 247.33 41.67 C 249.88 59.20 247.17 76.33 248.00 94.00 C 248.83 111.67 247.36 129.38 248.00 147.00 C 248.64 164.62 246.69 183.24 249.00 200.00
C 249.13 199.65 249.67 199.17 250.00 199.00
L 250.00 198.00
C 248.33 166.40 248.33 131.53 250.00 100.00
L 250.00 39.00
C 246.99 32.01 241.26 28.48 234.00 27.00
C 225.61 27.05 215.22 28.83 206.00 28.00 Z"/>
</g>
<g fill="#6D6D72" fill-opacity="0.99" stroke="None">
<path d="
M 207.00 32.00 
C 212.00 47.34 215.93 64.84 219.69 80.31 C 223.46 95.77 229.94 113.27 232.67 128.33 C 235.41 143.39 248.20 162.64 240.75 177.75 C 233.31 192.87 210.32 188.52 196.68 194.68 C 183.04 200.84 163.32 202.17 149.00 207.00
C 147.85 207.56 144.73 208.47 144.00 209.00
C 143.71 209.51 142.56 211.81 142.00 212.00
C 159.56 212.00 184.14 212.84 201.00 212.00 C 217.86 211.16 242.10 218.44 249.00 200.00
C 246.69 183.24 248.64 164.62 248.00 147.00 C 247.36 129.38 248.83 111.67 248.00 94.00 C 247.17 76.33 249.88 59.20 247.33 41.67 C 244.77 24.15 219.69 29.71 207.00 29.00
C 208.32 30.18 207.03 30.91 207.00 32.00 Z"/>
</g>
<g fill="#0E0700" fill-opacity="0.98" stroke="None">
<path d="
M 39.00 77.00 
C 38.59 78.38 39.00 80.55 39.00 82.00
C 39.00 90.61 37.72 101.63 39.00 110.00 C 40.28 118.37 35.58 130.51 39.00 138.00
C 40.16 138.52 40.32 139.11 41.00 140.00
C 50.11 144.16 55.06 134.39 52.00 125.00 C 48.94 115.61 44.87 127.78 47.00 136.00
C 39.56 134.64 43.86 123.25 43.00 116.00 C 42.14 108.75 43.65 98.52 43.00 91.00
C 43.00 88.61 41.77 80.08 44.00 79.00
C 45.00 79.00 46.00 79.00 47.00 79.00
C 48.30 84.00 43.34 95.76 52.00 94.00
C 57.20 86.49 47.35 64.15 39.00 77.00 Z"/>
</g>
<g fill="#7E5515" fill-opacity="0.97" stroke="None">
<path d="
M 106.00 140.00 
C 106.00 118.00 106.00 96.00 106.00 74.00
C 102.19 76.67 105.69 90.95 105.00 96.00 C 104.31 101.05 104.50 113.98 105.00 119.00 C 105.50 124.02 102.31 137.42 106.00 140.00 Z"/>
</g>
<g fill="#0A0502" fill-opacity="1.00" stroke="None">
<path d="
M 106.00 140.00 
C 110.97 143.48 119.97 139.14 118.00 133.00 C 116.03 126.86 119.25 120.06 118.00 114.00 C 116.75 107.94 117.36 105.29 118.00 99.00 C 118.64 92.71 116.79 85.96 118.00 80.00 C 119.21 74.05 109.85 71.31 106.00 74.00
C 106.00 96.00 106.00 118.00 106.00 140.00
M 114.00 79.00 
C 114.00 87.67 114.00 96.33 114.00 105.00
C 107.74 106.13 109.98 96.20 110.00 92.00 C 110.02 87.80 107.66 77.91 114.00 79.00
M 114.00 110.00 
C 114.00 118.67 114.00 127.33 114.00 136.00
C 107.74 137.13 109.98 127.20 110.00 123.00 C 110.02 118.80 107.66 108.91 114.00 110.00 Z"/>
</g>
<g fill="#9A8E33" fill-opacity="0.91" stroke="None">
<path d="
M 38.00 80.00 
C 38.00 80.50 38.00 81.50 38.00 82.00
C 38.34 82.23 39.00 82.00 39.00 82.00
C 39.00 80.55 38.59 78.38 39.00 77.00
C 38.21 78.21 38.01 78.22 38.00 80.00 Z"/>
</g>
<g fill="#E3A72D" fill-opacity="0.88" stroke="None">
<path d="
M 83.00 95.00 
C 82.26 96.87 80.22 95.21 79.00 96.00
C 78.69 100.50 79.41 106.67 79.00 111.00 C 78.59 115.33 79.79 122.28 79.00 126.00 C 78.21 129.72 81.17 138.44 78.00 140.00
C 77.40 140.29 75.68 140.00 75.00 140.00
C 74.50 140.00 74.00 140.00 74.00 140.00
C 78.21 150.42 86.60 159.14 91.77 169.23 C 96.94 179.32 104.30 189.10 110.00 199.00
C 108.19 191.45 105.65 177.61 103.78 169.22 C 101.90 160.83 93.77 147.61 97.00 140.00
C 81.17 145.77 88.51 118.47 87.00 111.00 C 85.49 103.53 88.91 104.99 87.00 98.00 C 85.09 91.01 92.56 93.99 95.00 92.00
C 95.81 87.92 92.07 75.98 100.00 78.00
C 94.85 72.93 92.40 84.43 94.00 90.00
C 85.18 88.20 86.28 96.78 85.00 102.00
C 85.97 99.29 83.53 96.95 83.00 95.00 Z"/>
</g>
<g fill="#785513" fill-opacity="0.98" stroke="None">
<path d="
M 95.00 92.00 
C 98.00 89.56 94.82 82.44 96.00 79.00
C 97.33 79.00 98.67 79.00 100.00 79.00
C 100.00 79.00 99.77 78.35 100.00 78.00
C 92.07 75.98 95.81 87.92 95.00 92.00 Z"/>
</g>
<g fill="#927B40" fill-opacity="0.91" stroke="None">
<path d="
M 43.00 91.00 
C 43.00 90.96 44.00 91.00 44.00 91.00
C 44.36 87.03 43.73 82.98 44.00 79.00
C 41.77 80.08 43.00 88.61 43.00 91.00 Z"/>
</g>
<g fill="#100600" fill-opacity="1.00" stroke="None">
<path d="
M 95.00 92.00 
C 92.56 93.99 85.09 91.01 87.00 98.00 C 88.91 104.99 85.49 103.53 87.00 111.00 C 88.51 118.47 81.17 145.77 97.00 140.00
C 100.64 131.43 100.25 121.52 100.00 111.00 C 99.75 100.48 100.00 89.55 100.00 79.00
C 98.67 79.00 97.33 79.00 96.00 79.00
C 94.82 82.44 98.00 89.56 95.00 92.00
M 95.00 136.00 
C 94.69 136.15 92.31 136.15 92.00 136.00
C 89.22 134.63 91.01 119.24 91.00 116.00 C 90.99 112.76 89.25 97.35 92.00 96.00
C 92.31 95.85 94.69 95.85 95.00 96.00
C 97.78 97.37 95.99 112.76 96.00 116.00 C 96.01 119.24 97.75 134.65 95.00 136.00 Z"/>
</g>
<g fill="#D09F44" fill-opacity="0.95" stroke="None">
<path d="
M 114.00 79.00 
C 107.66 77.91 110.02 87.80 110.00 92.00 C 109.98 96.20 107.74 106.13 114.00 105.00
C 114.00 96.33 114.00 87.67 114.00 79.00 Z"/>
</g>
<g fill="#B6B253" fill-opacity="0.67" stroke="None">
<path d="
M 38.00 136.00 
C 37.95 136.35 36.98 136.94 37.00 137.00
C 37.87 137.91 37.85 137.48 39.00 138.00
C 35.58 130.51 40.28 118.37 39.00 110.00 C 37.72 101.63 39.00 90.61 39.00 82.00
C 39.00 82.00 38.34 82.23 38.00 82.00
C 38.00 99.39 40.48 118.82 38.00 136.00 Z"/>
</g>
<g fill="#331200" fill-opacity="1.00" stroke="None">
<path d="
M 128.00 83.00 
C 125.60 81.80 122.74 85.01 125.32 86.66 C 127.90 88.31 130.28 84.14 128.00 83.00 Z"/>
</g>
<g fill="#F6DF1F" fill-opacity="0.60" stroke="None">
<path d="
M 41.00 140.00 
C 51.02 153.11 66.45 167.43 78.75 178.25 C 91.05 189.07 103.48 210.61 119.00 215.00
C 121.74 215.42 126.03 215.46 128.00 214.00
C 119.77 214.62 113.56 205.18 110.00 199.00
C 104.30 189.10 96.94 179.32 91.77 169.23 C 86.60 159.14 78.21 150.42 74.00 140.00
C 73.77 139.84 74.00 138.50 74.00 138.00
C 72.96 137.01 69.51 134.80 69.00 133.00
C 68.27 142.48 55.44 142.34 56.00 134.00 C 56.57 125.65 53.24 115.57 56.00 108.00
C 50.97 104.24 47.18 96.96 44.00 91.00
C 44.00 91.00 43.00 90.96 43.00 91.00
C 43.65 98.52 42.14 108.75 43.00 116.00 C 43.86 123.25 39.56 134.64 47.00 136.00
C 44.87 127.78 48.94 115.61 52.00 125.00 C 55.06 134.39 50.11 144.16 41.00 140.00 Z"/>
</g>
<g fill="#160B03" fill-opacity="0.98" stroke="None">
<path d="
M 56.00 108.00 
C 53.24 115.57 56.57 125.65 56.00 134.00 C 55.44 142.34 68.27 142.48 69.00 133.00
C 69.09 125.17 68.88 115.66 69.00 108.00 C 69.12 100.34 71.09 89.41 60.00 92.00
C 60.63 97.05 66.41 97.78 64.00 105.00
C 60.95 104.86 57.26 104.53 56.00 108.00
M 64.00 123.00 
C 64.00 127.33 64.00 131.67 64.00 136.00
C 56.22 135.23 61.59 123.47 60.00 118.00
C 60.00 114.70 58.65 108.08 64.00 109.00
C 64.00 113.67 64.00 118.33 64.00 123.00 Z"/>
</g>
<g fill="#040400" fill-opacity="1.00" stroke="None">
<path d="
M 75.00 94.00 
C 71.99 100.08 76.37 110.14 75.00 117.00 C 73.63 123.86 75.64 132.91 75.00 140.00
C 75.68 140.00 77.40 140.29 78.00 140.00
C 79.19 134.16 76.41 123.34 78.00 118.00 C 79.59 112.66 74.60 98.87 79.00 96.00
C 80.22 95.21 82.26 96.87 83.00 95.00
C 82.75 94.09 83.12 92.94 83.00 92.00
C 79.77 92.01 76.97 91.26 75.00 94.00 Z"/>
</g>
<g fill="#0B0300" fill-opacity="1.00" stroke="None">
<path d="
M 128.00 140.00 
C 128.00 124.00 128.00 108.00 128.00 92.00
C 126.67 92.00 125.33 92.00 124.00 92.00
C 124.00 108.00 124.00 124.00 124.00 140.00
C 125.08 139.56 127.00 140.58 128.00 140.00 Z"/>
</g>
<g fill="#6E4509" fill-opacity="1.00" stroke="None">
<path d="
M 128.00 140.00 
C 131.05 138.24 128.52 127.71 129.00 124.00 C 129.48 120.29 129.29 110.67 129.00 107.00 C 128.71 103.33 130.90 93.67 128.00 92.00
C 128.00 108.00 128.00 124.00 128.00 140.00 Z"/>
</g>
<g fill="#140803" fill-opacity="1.00" stroke="None">
<path d="
M 146.00 92.00 
C 142.00 92.00 138.00 92.00 134.00 92.00
C 132.57 97.05 137.77 96.06 141.00 96.00
C 139.33 110.84 135.76 125.20 134.00 140.00
C 138.00 140.00 142.00 140.00 146.00 140.00
C 147.43 134.95 142.23 135.94 139.00 136.00
C 141.43 121.34 144.62 106.90 146.00 92.00 Z"/>
</g>
<g fill="#493808" fill-opacity="0.96" stroke="None">
<path d="
M 74.00 138.00 
C 74.00 138.50 73.77 139.84 74.00 140.00
C 74.00 140.00 74.50 140.00 75.00 140.00
C 75.64 132.91 73.63 123.86 75.00 117.00 C 76.37 110.14 71.99 100.08 75.00 94.00
C 71.38 99.02 74.86 109.50 74.00 116.00 C 73.14 122.50 74.00 131.29 74.00 138.00 Z"/>
</g>
<g fill="#593A00" fill-opacity="0.96" stroke="None">
<path d="
M 78.00 140.00 
C 81.17 138.44 78.21 129.72 79.00 126.00 C 79.79 122.28 78.59 115.33 79.00 111.00 C 79.41 106.67 78.69 100.50 79.00 96.00
C 74.60 98.87 79.59 112.66 78.00 118.00 C 76.41 123.34 79.19 134.16 78.00 140.00 Z"/>
</g>
<g fill="#684A21" fill-opacity="0.97" stroke="None">
<path d="
M 92.00 136.00 
C 92.00 122.67 92.00 109.33 92.00 96.00
C 89.25 97.35 90.99 112.76 91.00 116.00 C 91.01 119.24 89.22 134.63 92.00 136.00 Z"/>
</g>
<g fill="#E3AD54" fill-opacity="0.94" stroke="None">
<path d="
M 92.00 136.00 
C 92.31 136.15 94.69 136.15 95.00 136.00
C 95.00 122.67 95.00 109.33 95.00 96.00
C 94.69 95.85 92.31 95.85 92.00 96.00
C 92.00 109.33 92.00 122.67 92.00 136.00 Z"/>
</g>
<g fill="#77581C" fill-opacity="0.98" stroke="None">
<path d="
M 95.00 136.00 
C 97.75 134.65 96.01 119.24 96.00 116.00 C 95.99 112.76 97.78 97.37 95.00 96.00
C 95.00 109.33 95.00 122.67 95.00 136.00 Z"/>
</g>
<g fill="#000000" fill-opacity="0.00" stroke="None">
<path d="
M 0.00 217.00 
L 117.00 217.00
C 103.32 206.83 89.21 192.81 77.25 179.75 C 65.29 166.69 49.58 154.95 38.75 141.25 C 27.92 127.54 7.01 117.06 1.00 101.00
C 0.87 100.65 0.34 100.17 0.00 100.00
L 0.00 217.00 Z"/>
</g>
<g fill="#BB7127" fill-opacity="0.46" stroke="None">
<path d="
M 1.00 101.00 
C 7.01 117.06 27.92 127.54 38.75 141.25 C 49.58 154.95 65.29 166.69 77.25 179.75 C 89.21 192.81 103.32 206.83 117.00 217.00
L 129.00 217.00
C 129.17 216.67 129.68 216.20 130.00 216.00
C 129.75 215.91 129.12 215.26 129.00 215.00
C 126.19 217.26 121.49 215.71 119.00 215.00
C 103.48 210.61 91.05 189.07 78.75 178.25 C 66.45 167.43 51.02 153.11 41.00 140.00
C 40.32 139.11 40.16 138.52 39.00 138.00
C 37.85 137.48 37.87 137.91 37.00 137.00
C 26.78 126.28 11.93 115.40 4.00 103.00
C 3.66 102.46 2.79 99.86 2.00 100.00
C 1.95 100.35 1.29 101.06 1.00 101.00 Z"/>
</g>
<g fill="#57575B" fill-opacity="0.85" stroke="None">
<path d="
M 250.00 198.00 
L 250.00 100.00
C 248.33 131.53 248.33 166.40 250.00 198.00 Z"/>
</g>
<g fill="#FBC631" fill-opacity="0.59" stroke="None">
<path d="
M 37.00 137.00 
C 36.98 136.94 37.95 136.35 38.00 136.00
C 29.19 123.58 13.41 115.08 4.00 103.00
C 11.93 115.40 26.78 126.28 37.00 137.00 Z"/>
</g>
<g fill="#CFAA3F" fill-opacity="0.88" stroke="None">
<path d="
M 60.00 118.00 
C 60.36 119.28 63.64 121.54 64.00 123.00
C 64.00 118.33 64.00 113.67 64.00 109.00
C 58.65 108.08 60.00 114.70 60.00 118.00 Z"/>
</g>
<g fill="#D09A3A" fill-opacity="0.95" stroke="None">
<path d="
M 114.00 110.00 
C 107.66 108.91 110.02 118.80 110.00 123.00 C 109.98 127.20 107.74 137.13 114.00 136.00
C 114.00 127.33 114.00 118.67 114.00 110.00 Z"/>
</g>
<g fill="#D8D030" fill-opacity="0.62" stroke="None">
<path d="
M 64.00 123.00 
C 63.64 121.54 60.36 119.28 60.00 118.00
C 61.59 123.47 56.22 135.23 64.00 136.00
C 64.00 131.67 64.00 127.33 64.00 123.00 Z"/>
</g>
<g fill="#AB494A" fill-opacity="0.99" stroke="None">
<path d="
M 207.00 139.00 
C 205.79 141.12 203.84 142.60 202.00 144.00
C 201.08 144.70 200.74 145.04 200.00 146.00
C 198.23 148.32 196.27 150.27 194.00 152.00
C 193.08 152.70 192.74 153.04 192.00 154.00
C 190.23 156.32 188.27 158.27 186.00 160.00
C 185.08 160.70 184.74 161.04 184.00 162.00
C 182.23 164.32 180.27 166.27 178.00 168.00
C 177.08 168.70 176.74 169.04 176.00 170.00
C 174.23 172.32 172.27 174.27 170.00 176.00
C 169.08 176.70 168.74 177.04 168.00 178.00
C 166.23 180.32 164.27 182.27 162.00 184.00
C 161.08 184.70 160.74 185.04 160.00 186.00
C 153.13 194.98 143.66 202.78 136.00 211.00
C 136.00 210.29 137.55 213.31 137.00 213.00
C 137.12 212.95 139.06 211.98 139.00 212.00
C 144.39 204.28 151.88 197.21 157.25 190.25 C 162.62 183.28 171.34 176.55 177.10 170.10 C 182.86 163.65 191.69 156.03 197.25 150.25 C 202.80 144.46 216.64 133.97 210.00 125.00
C 210.44 129.66 209.21 135.12 207.00 139.00 Z"/>
</g>
<g fill="#B65F33" fill-opacity="1.00" stroke="None">
<path d="
M 202.00 144.00 
C 203.84 142.60 205.79 141.12 207.00 139.00
C 206.10 140.34 203.27 142.74 202.00 144.00 Z"/>
</g>
<g fill="#B4623A" fill-opacity="1.00" stroke="None">
<path d="
M 194.00 152.00 
C 196.27 150.27 198.23 148.32 200.00 146.00
C 198.14 147.87 195.92 150.10 194.00 152.00 Z"/>
</g>
<g fill="#BE6242" fill-opacity="1.00" stroke="None">
<path d="
M 186.00 160.00 
C 188.27 158.27 190.23 156.32 192.00 154.00
C 190.14 155.87 187.92 158.10 186.00 160.00 Z"/>
</g>
<g fill="#B7623F" fill-opacity="1.00" stroke="None">
<path d="
M 178.00 168.00 
C 180.27 166.27 182.23 164.32 184.00 162.00
C 182.14 163.87 179.92 166.10 178.00 168.00 Z"/>
</g>
<g fill="#BD6342" fill-opacity="1.00" stroke="None">
<path d="
M 170.00 176.00 
C 172.27 174.27 174.23 172.32 176.00 170.00
C 174.14 171.87 171.92 174.10 170.00 176.00 Z"/>
</g>
<g fill="#B7623F" fill-opacity="1.00" stroke="None">
<path d="
M 162.00 184.00 
C 164.27 182.27 166.23 180.32 168.00 178.00
C 166.14 179.87 163.92 182.10 162.00 184.00 Z"/>
</g>
<g fill="#BE613F" fill-opacity="0.93" stroke="None">
<path d="
M 132.00 213.00 
C 131.20 213.38 129.89 213.67 129.00 214.00
C 129.25 214.25 129.00 215.00 129.00 215.00
C 129.12 215.26 129.75 215.91 130.00 216.00
C 131.09 215.32 131.86 215.40 133.00 215.00
C 133.33 214.74 135.38 211.66 136.00 211.00
C 143.66 202.78 153.13 194.98 160.00 186.00
C 155.71 190.33 150.32 195.65 145.75 199.75 C 141.19 203.85 137.47 210.41 132.00 213.00 Z"/>
</g>
<g fill="#000000" fill-opacity="0.00" stroke="None">
<path d="
M 249.00 200.00 
C 242.10 218.44 217.86 211.16 201.00 212.00 C 184.14 212.84 159.56 212.00 142.00 212.00
C 141.14 212.00 139.83 211.77 139.00 212.00
C 139.06 211.98 137.12 212.95 137.00 213.00
C 135.89 213.47 134.41 214.50 133.00 215.00
C 131.86 215.40 131.09 215.32 130.00 216.00
C 129.68 216.20 129.17 216.67 129.00 217.00
L 250.00 217.00
L 250.00 199.00
C 249.67 199.17 249.13 199.65 249.00 200.00 Z"/>
</g>
<g fill="#9B2F3E" fill-opacity="0.62" stroke="None">
<path d="
M 133.00 215.00 
C 134.41 214.50 135.89 213.47 137.00 213.00
C 137.55 213.31 136.00 210.29 136.00 211.00
C 135.38 211.66 133.33 214.74 133.00 215.00 Z"/>
</g>
<g fill="#D69618" fill-opacity="0.66" stroke="None">
<path d="
M 119.00 215.00 
C 121.49 215.71 126.19 217.26 129.00 215.00
C 129.00 215.00 129.25 214.25 129.00 214.00
C 129.00 214.00 128.50 213.96 128.00 214.00
C 126.03 215.46 121.74 215.42 119.00 215.00 Z"/>
</g>
</svg>