<svg xmlns="http://www.w3.org/2000/svg" width="680" height="377" viewBox="0 0 680 377" version="1.1"><path d="M 331.769 10.889 C 328.321 14.129, 307.950 33.015, 286.500 52.859 L 247.500 88.939 201.322 88.969 L 155.144 89 154.507 94.250 C 154.157 97.138, 154.031 101.975, 154.229 105 L 154.587 110.500 197.544 110.570 C 221.170 110.608, 242.389 110.450, 244.697 110.220 C 248.340 109.855, 250.125 108.659, 258.230 101.150 C 302.941 59.724, 338.462 27.443, 339.634 27.172 C 340.896 26.879, 348.610 33.608, 371.500 54.968 C 375.351 58.560, 383.226 65.809, 389 71.076 C 394.775 76.342, 406.475 87.073, 415 94.923 C 423.525 102.772, 431.497 109.584, 432.716 110.059 C 435.552 111.167, 523.071 111.264, 524.788 110.162 C 525.731 109.557, 525.999 106.674, 525.788 99.417 L 525.500 89.500 478.882 89 L 432.264 88.500 427.382 84.091 C 424.697 81.667, 419.350 76.705, 415.500 73.065 C 411.650 69.426, 403.100 61.530, 396.500 55.519 C 381.310 41.685, 362.101 23.891, 350.871 13.250 C 345.748 8.395, 341.315 5, 340.101 5 C 338.960 5, 335.236 7.632, 331.769 10.889 M 321.433 53.784 C 312.046 62.428, 293.146 79.808, 279.433 92.407 C 265.720 105.005, 252.889 116.835, 250.920 118.694 L 247.340 122.074 200.636 122.020 L 153.932 121.966 154.216 132.487 C 154.372 138.274, 154.838 143.007, 155.250 143.004 C 155.662 143.002, 176.587 142.995, 201.750 142.988 L 247.500 142.976 252.500 138.286 C 255.250 135.706, 260.439 130.874, 264.031 127.548 C 267.623 124.222, 273.248 119.011, 276.531 115.969 C 279.814 112.926, 293.300 100.592, 306.500 88.559 C 319.700 76.526, 332.366 64.904, 334.647 62.733 C 337.633 59.891, 339.216 59.025, 340.302 59.643 C 341.131 60.114, 346.690 65.034, 352.655 70.576 C 369.719 86.429, 424.110 136.344, 428.144 139.851 L 431.787 143.020 477.644 142.760 L 523.500 142.500 523.785 132.876 C 524.060 123.586, 523.990 123.230, 521.785 122.639 C 520.528 122.303, 499.605 122.021, 475.288 122.014 L 431.076 122 385.500 80 C 360.433 56.900, 339.604 38.015, 339.212 38.034 C 338.820 38.053, 330.820 45.141, 321.433 53.784 M 335.238 74.250 C 332.529 76.588, 314.179 93.350, 294.461 111.500 C 274.742 129.650, 256.272 146.637, 253.414 149.250 L 248.220 154 202.860 154.070 C 177.912 154.109, 156.825 154.446, 156 154.820 C 154.835 155.348, 154.487 157.511, 154.440 164.500 C 154.405 169.779, 154.818 173.804, 155.440 174.235 C 156.023 174.639, 177.098 174.976, 202.273 174.985 L 248.045 175 273.773 151.240 C 294.932 131.698, 312.388 115.685, 337 93.241 C 338.375 91.987, 340.030 91.082, 340.678 91.230 C 341.771 91.481, 365.364 112.858, 400.021 145 C 408.026 152.425, 418.718 162.213, 423.780 166.750 L 432.983 175 479.423 175 L 525.863 175 526.181 165.478 C 526.357 160.240, 526.350 155.515, 526.167 154.978 C 525.956 154.359, 508.661 154, 479.130 154 L 432.427 154 410.964 134.351 C 399.159 123.544, 378.607 104.644, 365.293 92.351 C 351.979 80.058, 340.878 70, 340.624 70 C 340.371 70, 337.947 71.912, 335.238 74.250 M 273.112 161.750 C 272.581 163.813, 270.480 173.087, 268.443 182.360 C 264.513 200.244, 264.554 200.969, 269.500 200.969 C 273.276 200.969, 274.098 199.297, 276.659 186.412 C 278.071 179.311, 279.573 173.125, 279.997 172.666 C 280.421 172.208, 281.096 177.739, 281.498 184.959 C 282.239 198.289, 283.108 201, 286.637 201 C 290.312 201, 292.497 198.133, 298.693 185.173 C 302.289 177.653, 305.423 172.006, 305.657 172.625 C 305.892 173.244, 304.940 178.817, 303.542 185.009 C 300.391 198.966, 300.384 199.807, 303.407 200.566 C 308.747 201.906, 309.483 200.411, 313.382 180.284 C 315.383 169.953, 317.016 160.692, 317.011 159.704 C 317.001 158.126, 316.184 157.944, 310.250 158.204 L 303.500 158.500 297.135 171.335 C 293.634 178.394, 290.424 183.794, 290.002 183.335 C 289.580 182.876, 288.993 177.454, 288.699 171.286 C 288.404 165.119, 287.875 159.606, 287.522 159.036 C 287.170 158.466, 284.001 158, 280.480 158 L 274.077 158 273.112 161.750 M 327.244 159.250 C 326.303 160.424, 317.992 195.981, 317.998 198.807 C 317.999 199.726, 319.258 200.024, 322.234 199.807 L 326.468 199.500 327.984 192.783 C 328.818 189.088, 329.950 185.650, 330.500 185.142 C 331.050 184.634, 335.360 184.029, 340.077 183.797 C 350.044 183.309, 354.798 181.054, 357.394 175.583 C 360.943 168.103, 358.288 161.007, 351.205 159.040 C 345.814 157.543, 328.489 157.695, 327.244 159.250 M 368.670 158.750 C 368.026 159.829, 360 196.563, 360 198.434 C 360 199.590, 361.030 200, 363.933 200 C 368.515 200, 368.071 200.915, 371.367 184.667 C 372.687 178.158, 374.202 172.398, 374.735 171.865 C 375.360 171.240, 375.957 175.778, 376.417 184.649 C 376.809 192.213, 377.353 198.762, 377.624 199.201 C 377.896 199.640, 379.865 200, 382 200 L 385.882 200 392.593 186.250 C 396.514 178.218, 399.476 173.207, 399.716 174.200 C 400.065 175.641, 397.348 190.361, 395.369 197.750 C 394.817 199.813, 395.105 200, 398.824 200 C 401.056 200, 403.193 199.497, 403.573 198.882 C 403.953 198.268, 405.976 189.164, 408.069 178.653 C 410.912 164.375, 411.575 159.350, 410.687 158.786 C 408.647 157.488, 399.330 157.897, 398.136 159.337 C 397.526 160.072, 394.250 166.259, 390.856 173.087 C 383.782 187.317, 383.591 187.242, 383.113 170.012 C 382.969 164.794, 382.379 159.957, 381.803 159.262 C 380.673 157.901, 369.439 157.463, 368.670 158.750 M 335.415 165.700 C 334.054 166.703, 331.915 175.053, 332.695 176.316 C 333.016 176.834, 336.001 177.006, 339.376 176.700 C 344.336 176.250, 345.900 175.655, 347.739 173.517 C 350.355 170.476, 350.580 168.726, 348.569 167.057 C 346.825 165.610, 336.922 164.588, 335.415 165.700 M 154.215 198.061 L 154.500 208.121 200.080 208.033 L 245.659 207.944 248.580 210.188 C 251.077 212.107, 274.683 233.582, 293 250.598 C 318.052 273.872, 339.076 293, 339.603 293 C 339.953 293, 344.781 288.837, 350.332 283.750 C 372.180 263.727, 413.767 225.454, 418.500 221.013 C 421.250 218.433, 425.665 214.450, 428.311 212.161 L 433.122 208 479.561 208 L 526 208 526 198.607 C 526 190.964, 525.705 189.101, 524.418 188.607 C 523.548 188.273, 502.381 188, 477.380 188 L 431.924 188 419.712 199.246 C 412.995 205.431, 395.787 221.293, 381.470 234.496 C 344.063 268.992, 340.713 272, 339.696 272 C 339.192 272, 336.442 269.863, 333.584 267.250 C 314.791 250.073, 279.519 217.643, 274.500 212.929 C 271.200 209.829, 263.775 202.962, 258 197.669 L 247.500 188.046 200.715 188.023 L 153.930 188 154.215 198.061 M 478.881 219.985 L 432.262 220.500 387.827 261.351 C 363.387 283.818, 342.727 302.573, 341.914 303.028 C 340.169 304.005, 341.217 304.884, 311.160 277.251 C 298.745 265.838, 279.653 248.287, 268.734 238.250 L 248.881 220 202.959 220 L 157.038 220 156.470 222.262 C 156.158 223.506, 156.037 227.893, 156.201 232.012 L 156.500 239.500 202.640 240 L 248.780 240.500 254.146 245.500 C 272.866 262.943, 331.457 316.760, 336.151 320.824 C 338.263 322.652, 340.639 324.002, 341.432 323.824 C 342.700 323.539, 364.293 303.896, 416.825 255.242 C 425.292 247.399, 433.183 240.745, 434.360 240.454 C 435.537 240.163, 456.604 240.054, 481.175 240.212 L 525.851 240.500 526.425 237.625 C 527.266 233.421, 527.128 218.960, 526.250 219.235 C 525.837 219.364, 504.521 219.702, 478.881 219.985 M 154 257.353 C 154 259.748, 154.289 264.473, 154.642 267.853 L 155.285 274 201.082 274 L 246.878 274 251.689 278.141 C 254.335 280.419, 256.725 282.590, 257 282.966 C 257.275 283.342, 262.675 288.308, 269 294.002 C 275.325 299.696, 282.750 306.458, 285.500 309.029 C 318.704 340.070, 338.737 358.003, 340.162 357.957 C 341.779 357.906, 342.862 356.944, 383.500 319.437 C 389.550 313.854, 400.575 303.727, 408 296.933 C 415.425 290.140, 423.400 282.814, 425.721 280.655 C 428.043 278.496, 430.812 276.119, 431.876 275.375 C 433.420 274.293, 443.042 273.968, 479.655 273.760 L 525.500 273.500 525.785 263.250 L 526.070 253 478.785 253.037 L 431.500 253.074 420.449 263.287 C 355.341 323.457, 341.452 336, 339.933 336 C 339.251 336, 336.399 333.863, 333.594 331.250 C 320.093 318.675, 303.052 302.982, 277 279.135 L 248.500 253.047 201.250 253.023 L 154 253 154 257.353" stroke="none" fill="#0d0b05" fill-rule="evenodd"/><path d="M 306.339 56.797 C 245.581 112.911, 249.596 109.432, 244.823 110.098 C 242.465 110.427, 221.066 110.652, 197.269 110.598 L 154.002 110.500 154.001 116.230 L 154 121.960 198.946 122.230 C 223.667 122.378, 244.796 122.275, 245.900 122 C 247.005 121.725, 260.616 109.800, 276.148 95.500 C 327.085 48.604, 338.162 38.504, 338.992 38.198 C 339.443 38.032, 360.346 56.819, 385.444 79.948 L 431.076 122 475.288 122.014 C 499.605 122.021, 520.528 122.303, 521.785 122.639 C 523.990 123.230, 524.060 123.586, 523.785 132.876 L 523.500 142.500 477.644 142.760 L 431.787 143.020 428.144 139.851 C 424.110 136.344, 369.719 86.429, 352.655 70.576 C 346.690 65.034, 341.131 60.114, 340.302 59.643 C 339.216 59.025, 337.633 59.891, 334.647 62.733 C 332.366 64.904, 319.700 76.526, 306.500 88.559 C 293.300 100.592, 279.814 112.926, 276.531 115.969 C 273.248 119.011, 267.623 124.222, 264.031 127.548 C 260.439 130.874, 255.250 135.706, 252.500 138.286 L 247.500 142.976 201.500 143.107 C 176.200 143.178, 155.162 143.184, 154.750 143.118 C 154.338 143.053, 154 145.752, 154 149.117 C 154 154.972, 154.096 155.207, 156.250 154.630 C 157.488 154.299, 178.750 154.005, 203.500 153.979 L 248.500 153.930 273.130 131.215 C 321.938 86.201, 337.951 71.607, 339.456 70.765 C 340.619 70.114, 346.800 75.276, 365.243 92.305 C 378.584 104.623, 399.159 123.544, 410.964 134.351 L 432.427 154 479.214 154 L 526 154 526 132.250 L 526 110.500 481.750 110.776 C 457.413 110.928, 436.148 110.816, 434.496 110.527 C 432.404 110.161, 426.485 105.407, 414.996 94.866 C 405.923 86.541, 394 75.630, 388.500 70.619 C 383 65.608, 375.350 58.566, 371.500 54.972 C 349.753 34.665, 341.073 27.005, 339.859 27.047 C 339.112 27.073, 324.027 40.460, 306.339 56.797 M 337 93.241 C 312.383 115.690, 294.927 131.703, 273.742 151.268 L 247.984 175.057 200.991 174.779 L 153.999 174.500 154 181.250 L 154 188 200.750 188.023 L 247.500 188.046 258 197.669 C 263.775 202.962, 271.200 209.829, 274.500 212.929 C 279.519 217.643, 314.791 250.073, 333.584 267.250 C 336.442 269.863, 339.192 272, 339.696 272 C 340.713 272, 344.063 268.992, 381.470 234.496 C 395.787 221.293, 413.009 205.418, 419.743 199.217 L 431.986 187.943 478.993 188.221 L 526.001 188.500 526 181.750 L 526 175 479.491 175 L 432.983 175 423.780 166.750 C 418.718 162.213, 408.026 152.425, 400.021 145 C 365.364 112.858, 341.771 91.481, 340.678 91.230 C 340.030 91.082, 338.375 91.987, 337 93.241 M 273.112 161.750 C 272.581 163.813, 270.480 173.087, 268.443 182.360 C 264.513 200.244, 264.554 200.969, 269.500 200.969 C 273.276 200.969, 274.098 199.297, 276.659 186.412 C 278.071 179.311, 279.573 173.125, 279.997 172.666 C 280.421 172.208, 281.096 177.739, 281.498 184.959 C 282.239 198.289, 283.108 201, 286.637 201 C 290.312 201, 292.497 198.133, 298.693 185.173 C 302.289 177.653, 305.423 172.006, 305.657 172.625 C 305.892 173.244, 304.940 178.817, 303.542 185.009 C 300.391 198.966, 300.384 199.807, 303.407 200.566 C 308.747 201.906, 309.483 200.411, 313.382 180.284 C 315.383 169.953, 317.016 160.692, 317.011 159.704 C 317.001 158.126, 316.184 157.944, 310.250 158.204 L 303.500 158.500 297.135 171.335 C 293.634 178.394, 290.424 183.794, 290.002 183.335 C 289.580 182.876, 288.993 177.454, 288.699 171.286 C 288.404 165.119, 287.875 159.606, 287.522 159.036 C 287.170 158.466, 284.001 158, 280.480 158 L 274.077 158 273.112 161.750 M 327.244 159.250 C 326.303 160.424, 317.992 195.981, 317.998 198.807 C 317.999 199.726, 319.258 200.024, 322.234 199.807 L 326.468 199.500 327.984 192.783 C 328.818 189.088, 329.950 185.650, 330.500 185.142 C 331.050 184.634, 335.360 184.029, 340.077 183.797 C 350.044 183.309, 354.798 181.054, 357.394 175.583 C 360.943 168.103, 358.288 161.007, 351.205 159.040 C 345.814 157.543, 328.489 157.695, 327.244 159.250 M 368.670 158.750 C 368.026 159.829, 360 196.563, 360 198.434 C 360 199.590, 361.030 200, 363.933 200 C 368.515 200, 368.071 200.915, 371.367 184.667 C 372.687 178.158, 374.202 172.398, 374.735 171.865 C 375.360 171.240, 375.957 175.778, 376.417 184.649 C 376.809 192.213, 377.353 198.762, 377.624 199.201 C 377.896 199.640, 379.865 200, 382 200 L 385.882 200 392.593 186.250 C 396.514 178.218, 399.476 173.207, 399.716 174.200 C 400.065 175.641, 397.348 190.361, 395.369 197.750 C 394.817 199.813, 395.105 200, 398.824 200 C 401.056 200, 403.193 199.497, 403.573 198.882 C 403.953 198.268, 405.976 189.164, 408.069 178.653 C 410.912 164.375, 411.575 159.350, 410.687 158.786 C 408.647 157.488, 399.330 157.897, 398.136 159.337 C 397.526 160.072, 394.250 166.259, 390.856 173.087 C 383.782 187.317, 383.591 187.242, 383.113 170.012 C 382.969 164.794, 382.379 159.957, 381.803 159.262 C 380.673 157.901, 369.439 157.463, 368.670 158.750 M 335.415 165.700 C 334.054 166.703, 331.915 175.053, 332.695 176.316 C 333.016 176.834, 336.001 177.006, 339.376 176.700 C 344.336 176.250, 345.900 175.655, 347.739 173.517 C 350.355 170.476, 350.580 168.726, 348.569 167.057 C 346.825 165.610, 336.922 164.588, 335.415 165.700 M 154.083 230.557 L 154.062 253 201.281 253.023 L 248.500 253.047 277 279.135 C 303.052 302.982, 320.093 318.675, 333.594 331.250 C 336.399 333.863, 339.251 336, 339.933 336 C 341.452 336, 355.341 323.457, 420.449 263.287 L 431.500 253.074 478.750 253.037 L 526 253 526 247.107 C 526 242.656, 525.613 241.065, 524.418 240.607 C 523.548 240.273, 502.909 240, 478.553 240 C 434.319 240, 434.266 240.002, 431.385 242.223 C 429.798 243.446, 419.724 252.559, 408.997 262.473 C 352.321 314.861, 342.778 323.527, 341.445 323.824 C 340.646 324.002, 338.263 322.652, 336.151 320.824 C 331.457 316.760, 272.866 262.943, 254.146 245.500 L 248.780 240.500 202.640 240 L 156.500 239.500 156.201 232.012 C 156.037 227.893, 156.158 223.506, 156.470 222.262 L 157.038 220 202.959 220 L 248.881 220 268.734 238.250 C 279.653 248.287, 298.745 265.838, 311.160 277.251 C 341.325 304.983, 340.144 303.996, 341.961 303.006 C 342.808 302.544, 363.525 283.700, 388 261.129 L 432.500 220.091 478.168 220.045 C 503.286 220.020, 524.436 219.771, 525.168 219.491 C 526.115 219.128, 526.401 217.394, 526.157 213.491 L 525.815 208 479.468 208 L 433.122 208 428.311 212.161 C 425.665 214.450, 421.250 218.433, 418.500 221.013 C 413.767 225.454, 372.180 263.727, 350.332 283.750 C 344.781 288.837, 339.953 293, 339.603 293 C 339.076 293, 318.052 273.872, 293 250.598 C 274.687 233.585, 251.077 212.107, 248.581 210.189 L 245.662 207.947 199.883 208.030 L 154.104 208.114 154.083 230.557" stroke="none" fill="#e9d913" fill-rule="evenodd"/></svg>